<svg width="38" height="38" viewBox="0 0 38 38" fill="none" xmlns="http://www.w3.org/2000/svg">
<path d="M35.8892 0H19.0003C17.8392 0 16.8892 0.95 16.8892 2.11111V5.51L16.9103 5.53111L27.4658 15.0311C28.7958 16.2133 29.5558 17.9444 29.5558 19.7389V21.1111H33.778V25.3333H29.5558V29.5556H33.778V33.7778H29.5558V38H35.8892C37.0503 38 38.0003 37.05 38.0003 35.8889V2.11111C38.0003 0.95 37.0503 0 35.8892 0ZM25.3336 8.44444H21.1114V4.22222H25.3336V8.44444ZM33.778 16.8889H29.5558V12.6667H33.778V16.8889ZM33.778 8.44444H29.5558V4.22222H33.778V8.44444Z" fill="#9B9B9C"/>
<path d="M25.3335 35.889V19.739C25.3328 19.4444 25.2704 19.1532 25.1504 18.8841C25.0305 18.6151 24.8555 18.3741 24.6368 18.1768L14.0812 8.67676C13.6986 8.31756 13.1916 8.12079 12.6668 8.12787C12.1601 8.12787 11.6535 8.31787 11.2524 8.67676L0.696799 18.1768C0.474921 18.3715 0.297787 18.612 0.177539 18.8816C0.0572903 19.1513 -0.0032281 19.4438 0.000132688 19.739V35.889C0.000132688 37.0501 0.950132 38.0001 2.11124 38.0001H6.33347C7.49458 38.0001 8.44458 37.0501 8.44458 35.889V27.4445H16.889V35.889C16.889 37.0501 17.839 38.0001 19.0001 38.0001H23.2224C24.3835 38.0001 25.3335 37.0501 25.3335 35.889Z" fill="#9B9B9C"/>
</svg>
