<svg width="69" height="28" viewBox="0 0 69 28" fill="none" xmlns="http://www.w3.org/2000/svg">
<path fill-rule="evenodd" clip-rule="evenodd" d="M0.5 22.75V0H58.6367V7H63.8184L69 14V22.75H65.5459C65.5459 24.1423 64.999 25.4778 64.0273 26.4624C63.0557 27.4468 61.7383 28 60.3633 28C58.9893 28 57.6709 27.4468 56.6992 26.4624C55.7275 25.4778 55.1816 24.1423 55.1816 22.75H44.8184C44.8184 24.1423 44.2725 25.4778 43.3008 26.4624C42.3291 27.4468 41.0107 28 39.6367 28C38.2617 28 36.9443 27.4468 35.9727 26.4624C35 25.4778 34.4541 24.1423 34.4541 22.75H12.9941C12.998 22.8328 13 22.9163 13 23C13 25.7615 10.7617 28 8 28C5.23828 28 3 25.7615 3 23C3 22.9163 3.00195 22.8328 3.00586 22.75H0.5ZM62.9541 9.625H58.6367V14H66.3574L62.9541 9.625ZM41.4688 20.8938C40.9824 20.4016 40.3232 20.125 39.6367 20.125C38.9492 20.125 38.29 20.4016 37.8047 20.8938C37.5684 21.1328 37.3828 21.4131 37.2539 21.718C37.1182 22.041 37.0459 22.3918 37.0459 22.75C37.0459 23.4463 37.3184 24.1138 37.8047 24.6062C38.29 25.0984 38.9492 25.375 39.6367 25.375C40.3232 25.375 40.9824 25.0984 41.4688 24.6062C41.9541 24.1138 42.2275 23.4463 42.2275 22.75C42.2275 22.0537 41.9541 21.3862 41.4688 20.8938ZM62.1953 20.8938C61.71 20.4016 61.0508 20.125 60.3633 20.125C60.126 20.125 59.8926 20.158 59.668 20.2212C59.2422 20.3416 58.8496 20.5715 58.5312 20.8938C58.3203 21.1079 58.1494 21.3552 58.0234 21.6235C57.8594 21.9722 57.7725 22.3564 57.7725 22.75C57.7725 23.4463 58.0459 24.1138 58.5312 24.6062C59.0176 25.0984 59.6768 25.375 60.3633 25.375C61.0508 25.375 61.71 25.0984 62.1953 24.6062C62.6816 24.1138 62.9541 23.4463 62.9541 22.75C62.9541 22.0537 62.6816 21.3862 62.1953 20.8938ZM7.75 25.5C9.26878 25.5 10.5 24.2688 10.5 22.75C10.5 21.2312 9.26878 20 7.75 20C6.23122 20 5 21.2312 5 22.75C5 24.2688 6.23122 25.5 7.75 25.5Z" fill="#9b9b9c"/>
</svg>