<svg width="30" height="32" viewBox="0 0 30 32" fill="none" xmlns="http://www.w3.org/2000/svg">
<path d="M27.4163 13.2706L26.7138 11.5144L25.4681 8.4C24.3988 5.72687 21.8481 4 18.9688 4H11.0312C8.1525 4 5.60125 5.72687 4.53188 8.4L3.28625 11.5144L2.58375 13.2706C1.07625 13.8438 0 15.2913 0 17V20C0 21.0075 0.385 21.9169 1 22.6206V26C1 27.1044 1.89562 28 3 28H5C6.10437 28 7 27.1044 7 26V24H23V26C23 27.1044 23.8956 28 25 28H27C28.1044 28 29 27.1044 29 26V22.6206C29.615 21.9175 30 21.0081 30 20V17C30 15.2913 28.9237 13.8438 27.4163 13.2706ZM8.24562 9.88562C8.70125 8.74687 9.80437 8 11.0312 8H18.9688C20.1956 8 21.2987 8.74687 21.7544 9.88562L23 13H7L8.24562 9.88562ZM5 19.9875C3.8 19.9875 3 19.19 3 17.9937C3 16.7975 3.8 16 5 16C6.2 16 8 17.7944 8 18.9906C8 20.1869 6.2 19.9875 5 19.9875ZM25 19.9875C23.8 19.9875 22 20.1869 22 18.9906C22 17.7944 23.8 16 25 16C26.2 16 27 16.7975 27 17.9937C27 19.19 26.2 19.9875 25 19.9875Z" fill="url(#paint0_linear)"/>
<defs>
<linearGradient id="paint0_linear" x1="0" y1="16" x2="30" y2="16" gradientUnits="userSpaceOnUse">
<stop stop-color="#ED213A"/>
<stop offset="1" stop-color="#93291E"/>
</linearGradient>
</defs>
</svg>
