<svg width="38" height="30" viewBox="0 0 38 30" fill="none" xmlns="http://www.w3.org/2000/svg">
<path d="M31.0135 13.3598C31.0135 13.3598 31.5149 15.8301 31.6271 16.348H29.4236C29.6413 15.757 30.4792 13.4594 30.4792 13.4594C30.466 13.4793 30.6969 12.8551 30.8288 12.4699L31.0135 13.3598ZM38 3.3125V26.6875C38 28.4473 36.5816 29.875 34.8333 29.875H3.16667C1.4184 29.875 0 28.4473 0 26.6875V3.3125C0 1.55273 1.4184 0.125 3.16667 0.125H34.8333C36.5816 0.125 38 1.55273 38 3.3125ZM10.0608 19.9938L14.2302 9.6875H11.4264L8.83368 16.7266L8.55 15.2988L7.62639 10.5574C7.47465 9.9 7.00625 9.71406 6.42569 9.6875H2.15729L2.11111 9.89336C3.15347 10.159 4.08368 10.5441 4.89514 11.0289L7.25694 19.9938H10.0608ZM16.2885 20.007L17.951 9.6875H15.299L13.6431 20.007H16.2885ZM25.5181 16.6336C25.5312 15.4582 24.8188 14.5617 23.2948 13.8246C22.3646 13.3531 21.7972 13.0344 21.7972 12.5496C21.8104 12.1113 22.2788 11.6598 23.3212 11.6598C24.1854 11.6398 24.8188 11.8457 25.2938 12.0516L25.5312 12.1645L25.8941 9.9332C25.3729 9.72734 24.5417 9.49492 23.5191 9.49492C20.9 9.49492 19.0594 10.9027 19.0462 12.9082C19.0264 14.3891 20.3656 15.2125 21.3684 15.7105C22.391 16.2152 22.7406 16.5473 22.7406 16.9922C22.7274 17.6828 21.9094 18.0016 21.1507 18.0016C20.0951 18.0016 19.5278 17.8355 18.6635 17.4504L18.3139 17.2844L17.9444 19.602C18.5646 19.8875 19.7125 20.1398 20.9 20.1531C23.684 20.1598 25.4983 18.7719 25.5181 16.6336ZM34.8333 20.007L32.6958 9.6875H30.6441C30.0108 9.6875 29.5292 9.87344 29.2587 10.5441L25.3201 20.007H28.1042C28.1042 20.007 28.5594 18.732 28.6583 18.4598H32.0625C32.1417 18.825 32.3792 20.007 32.3792 20.007H34.8333Z" fill="#8B0000"/>
</svg>
