<svg width="144" height="144" viewBox="0 0 144 144" fill="none" xmlns="http://www.w3.org/2000/svg">
<rect x="12" y="12" width="122" height="122" rx="61" fill="#F3F3F3" stroke="#CECECE" stroke-width="2"/>
<g clip-path="url(#clip0)">
<path d="M118.87 83.8518L109.625 41.3814C109.11 39.0133 107.729 36.9575 105.834 35.7402C104.46 34.8576 102.954 34.5024 101.47 34.7102L35.2137 44.0118C34.0912 44.1622 33.0124 44.5451 32.0462 45.136C31.0801 45.7268 30.2478 46.5127 29.6025 47.4434C28.2138 49.4369 27.7464 51.9024 28.2864 54.3872L39.4931 105.858C40.0089 108.221 41.3639 110.21 43.3081 111.459C44.3057 112.098 45.4296 112.514 46.6028 112.678C47.776 112.842 48.9708 112.751 50.1055 112.411L114.227 93.3111C117.758 92.2611 119.797 88.1069 118.87 83.8518ZM32.027 49.1321C32.4406 48.5359 32.9742 48.0327 33.5935 47.6546C34.2128 47.2765 34.9043 47.0319 35.6236 46.9365L101.882 37.6381C102.652 37.528 103.467 37.7314 104.237 38.2259C105.46 39.011 106.395 40.4267 106.739 42.0111L107.541 45.6901L32.178 58.3683L31.1749 53.757C30.8106 52.0841 31.1126 50.4414 32.027 49.1321ZM113.382 90.4799L49.2636 109.581C48.5367 109.804 47.7698 109.865 47.0168 109.76C46.2638 109.655 45.5429 109.387 44.9047 108.973C43.6236 108.15 42.7269 106.819 42.3789 105.226L36.1199 76.4749L110.815 60.7388L115.985 84.4801C116.573 87.185 115.406 89.8793 113.382 90.4799Z" fill="url(#paint0_linear)"/>
<path d="M105.27 67.4522L47.8002 80.5861L51.4805 97.4914L54.1348 96.7899C55.0266 97.6987 56.4529 98.1572 57.9068 97.8241C60.0795 97.3251 62.1068 95.9099 63.9042 94.2002L108.521 82.3859L105.27 67.4522ZM96.7261 79.5027C95.4887 79.3124 93.551 78.7418 96.3194 77.9108L96.8532 79.4221C96.8113 79.4512 96.7671 79.475 96.7261 79.5027ZM105.504 79.1657C105.526 79.1622 105.53 79.1414 105.546 79.1343L105.906 80.787L73.8354 89.281C75.5464 88.2439 77.107 87.0292 78.6629 85.7825C79.3593 85.2216 79.8678 85.78 80.672 85.6013C82.3106 85.2362 83.9265 84.8314 85.5356 84.4551C87.5704 83.9814 89.0655 82.5798 91.0076 82.0369C93.0933 81.4569 94.7574 81.4249 96.5078 80.3958C99.4061 80.8688 103.046 79.6398 105.504 79.1657ZM50.4318 82.2592L103.582 70.1107L105.416 78.5393C105.396 78.5378 105.386 78.52 105.364 78.5249C103.928 78.7999 102.474 79.0541 101.002 79.2631C99.8972 79.4156 98.7862 79.5147 97.6723 79.5601C98.1527 79.0768 98.7231 78.0565 97.9651 77.4865C96.3604 76.2684 92.5818 78.8917 95.0554 79.9959C95.2348 80.0744 95.4352 80.1143 95.6255 80.1728C95.1052 80.4566 94.5579 80.6922 94.0115 80.8994C92.7755 81.3744 91.3918 81.2253 90.1047 81.5844C88.4712 82.0377 87.1192 83.3247 85.3898 83.7801C84.6255 83.9806 80.1567 85.5407 79.5215 84.6112C79.4407 84.4994 79.2498 84.4598 79.1462 84.54C78.3437 85.1699 77.5424 85.8101 76.7383 86.4485C76.5982 86.5614 75.9148 86.9818 75.2404 87.4004C76.3807 86.2595 77.338 84.8503 77.6265 84.0796C77.7282 83.8069 77.4552 83.6065 77.2505 83.6275C75.452 83.8146 73.6498 85.8475 73.1875 87.9744C72.5953 88.1116 71.9786 88.0825 71.3248 87.8344C71.1084 87.4347 70.544 87.7751 70.7609 88.1771C70.8325 88.3062 70.9125 88.3981 70.9904 88.5023C70.2589 88.5828 69.4642 88.6112 68.6277 88.6146C70.3119 86.3204 73.4818 81.7553 71.1717 79.3984C71.057 79.2822 70.9184 79.2454 70.7826 79.3184C68.2619 80.6388 63.7655 83.9135 64.7621 87.7501C64.8793 88.202 65.5211 88.0387 65.4039 87.5868C64.6393 84.6429 67.8453 82.1113 69.6697 80.7744C72.4911 78.7124 70.223 84.7028 69.7596 85.5505C69.1805 86.6115 68.5121 87.6249 67.8027 88.612C63.04 88.5579 57.2343 88.0618 54.1559 92.1237C53.462 93.0416 53.1964 93.9332 53.2298 94.735L53.1522 94.7566L50.4318 82.2592ZM76.3225 84.5881C76.2205 85.4806 75.8469 86.1734 75.2016 86.6609C74.8613 87.0602 74.451 87.3942 73.991 87.6466C74.441 86.3867 75.3846 85.2546 76.3225 84.5881ZM54.3634 94.4375C54.4879 93.7295 54.7538 92.9037 55.1944 91.9352C56.0087 91.076 57.0576 90.475 58.2107 90.207C61.1219 89.2379 64.2388 89.3646 67.2648 89.3712C66.7042 90.104 66.1117 90.8118 65.4889 91.4926L54.3634 94.4375ZM59.6681 96.2728C58.7254 96.836 57.6702 97.1842 56.5775 97.2928C55.7355 97.2715 55.1447 97.0368 54.7639 96.6223L62.0016 94.7086C61.2539 95.2713 60.475 95.7984 59.6681 96.2728ZM68.0699 89.3688C69.1673 89.3591 70.2484 89.3177 71.2983 89.1867C71.4287 89.1701 71.4845 89.0862 71.5121 88.9861C71.9707 89.2343 72.5104 89.1909 73.0746 88.968C73.0737 89.0235 73.058 89.081 73.0621 89.1377C73.0622 89.197 73.0758 89.2554 73.1019 89.3086C73.1279 89.3619 73.1658 89.4084 73.2125 89.4448L66.6668 91.1773C67.1648 90.5643 67.6399 89.954 68.0699 89.3688Z" fill="url(#paint1_linear)"/>
</g>
<defs>
<linearGradient id="paint0_linear" x1="30.8383" y1="45.5082" x2="112.873" y2="98.2027" gradientUnits="userSpaceOnUse">
<stop stop-color="#ED213A"/>
<stop offset="1" stop-color="#93291E"/>
</linearGradient>
<linearGradient id="paint1_linear" x1="55.8733" y1="68.0178" x2="99.6768" y2="96.1547" gradientUnits="userSpaceOnUse">
<stop stop-color="#ED213A"/>
<stop offset="1" stop-color="#93291E"/>
</linearGradient>
<clipPath id="clip0">
<rect width="104" height="104" fill="white" transform="translate(56.2069) rotate(32.7144)"/>
</clipPath>
</defs>
</svg>
