<svg width="74" height="73" viewBox="0 0 74 73" fill="none" xmlns="http://www.w3.org/2000/svg">
<path d="M57.72 55.48H16.28C13.764 55.48 11.84 53.582 11.84 51.1V21.9C11.84 19.418 13.764 17.52 16.28 17.52H57.72C60.236 17.52 62.16 19.418 62.16 21.9V51.1C62.16 53.582 60.236 55.48 57.72 55.48ZM16.28 20.44C15.392 20.44 14.8 21.024 14.8 21.9V51.1C14.8 51.976 15.392 52.56 16.28 52.56H57.72C58.608 52.56 59.2 51.976 59.2 51.1V21.9C59.2 21.024 58.608 20.44 57.72 20.44H16.28Z" fill="#878787"/>
<path d="M13.32 23.36H60.68V32.12H13.32V23.36Z" fill="#878787"/>
<path d="M17.76 37.96H19.24V40.88H17.76V37.96Z" fill="#878787"/>
<path d="M20.72 37.96H22.2V40.88H20.72V37.96Z" fill="#878787"/>
<path d="M23.68 37.96H25.16V40.88H23.68V37.96Z" fill="#878787"/>
<path d="M28.12 37.96H29.6V40.88H28.12V37.96Z" fill="#878787"/>
<path d="M31.08 37.96H32.56V40.88H31.08V37.96Z" fill="#878787"/>
<path d="M34.04 37.96H35.52V40.88H34.04V37.96Z" fill="#878787"/>
<path d="M38.48 37.96H39.96V40.88H38.48V37.96Z" fill="#878787"/>
<path d="M41.44 37.96H42.92V40.88H41.44V37.96Z" fill="#878787"/>
<path d="M44.4 37.96H45.88V40.88H44.4V37.96Z" fill="#878787"/>
<path d="M48.84 37.96H50.32V40.88H48.84V37.96Z" fill="#878787"/>
<path d="M51.8 37.96H53.28V40.88H51.8V37.96Z" fill="#878787"/>
<path d="M54.76 37.96H56.24V40.88H54.76V37.96Z" fill="#878787"/>
</svg>
