<!DOCTYPE svg PUBLIC "-//W3C//DTD SVG 1.1//EN" "http://www.w3.org/Graphics/SVG/1.1/DTD/svg11.dtd">
<!-- Uploaded to: SVG Repo, www.svgrepo.com, Transformed by: SVG Repo Mixer Tools -->
<svg width="800px" height="800px" viewBox="0 0 24 24" xmlns="http://www.w3.org/2000/svg" fill="#9b9b9c">
<g id="SVGRepo_bgCarrier" stroke-width="0"/>
<g id="SVGRepo_tracerCarrier" stroke-linecap="round" stroke-linejoin="round"/>
<g id="SVGRepo_iconCarrier"> <g> <path fill="none" d="M0 0h24v24H0z"/> <path d="M19 21H5v1a1 1 0 0 1-1 1H3a1 1 0 0 1-1-1v-9l2.417-4.029A2 2 0 0 1 6.132 8h11.736a2 2 0 0 1 1.715.971L22 13v9a1 1 0 0 1-1 1h-1a1 1 0 0 1-1-1v-1zM4.332 13h15.336l-1.8-3H6.132l-1.8 3zM6.5 18a1.5 1.5 0 1 0 0-3 1.5 1.5 0 0 0 0 3zm11 0a1.5 1.5 0 1 0 0-3 1.5 1.5 0 0 0 0 3zM5.44 3.44L6.5 2.378l1.06 1.06a1.5 1.5 0 1 1-2.121 0zm5.5 0L12 2.378l1.06 1.06a1.5 1.5 0 1 1-2.121 0zm5.5 0l1.06-1.061 1.06 1.06a1.5 1.5 0 1 1-2.121 0z"/> </g> </g>
</svg>