<svg width="22" height="20" viewBox="0 0 22 20" fill="none" xmlns="http://www.w3.org/2000/svg">
<path d="M11 0.375C4.9242 0.375 -1.6894e-05 4.37539 -1.6894e-05 9.3125C-1.6894e-05 11.3578 0.855061 13.2312 2.27303 14.7395C1.6328 16.4324 0.300764 17.8676 0.27928 17.8848C-0.00431377 18.1855 -0.0816575 18.6238 0.0816237 19.002C0.244905 19.3801 0.618733 19.625 1.03123 19.625C3.67381 19.625 5.7578 18.5207 7.00819 17.6355C8.24998 18.0266 9.59061 18.25 11 18.25C17.0758 18.25 22 14.2496 22 9.3125C22 4.37539 17.0758 0.375 11 0.375ZM11 16.1875C9.85272 16.1875 8.71834 16.0113 7.63123 15.6676L6.65584 15.3582L5.81795 15.9512C5.2035 16.3852 4.36131 16.8707 3.34725 17.1973C3.66092 16.6773 3.966 16.093 4.20233 15.4699L4.6578 14.2625L3.77264 13.3258C2.9949 12.4965 2.06248 11.1258 2.06248 9.3125C2.06248 5.52266 6.07147 2.4375 11 2.4375C15.9285 2.4375 19.9375 5.52266 19.9375 9.3125C19.9375 13.1023 15.9285 16.1875 11 16.1875Z" fill="#989898"/>
</svg>
