<svg width="39" height="37" viewBox="0 0 39 37" fill="none" xmlns="http://www.w3.org/2000/svg">
<path d="M17.1562 23.25C18.2751 23.25 19.3482 23.6945 20.1394 24.4856C20.9305 25.2768 21.375 26.3499 21.375 27.4688V30.285L21.36 30.4875C20.7787 34.4756 17.1975 36.3919 11.1881 36.3919C5.20125 36.3919 1.56187 34.4981 0.77625 30.5569L0.75 30.2812V27.4688C0.75 26.3499 1.19447 25.2768 1.98564 24.4856C2.77681 23.6945 3.84987 23.25 4.96875 23.25H17.1562ZM11.0625 8.25C11.9243 8.25 12.7777 8.41974 13.5739 8.74954C14.3701 9.07934 15.0935 9.56273 15.7029 10.1721C16.3123 10.7815 16.7957 11.5049 17.1255 12.3011C17.4553 13.0973 17.625 13.9507 17.625 14.8125C17.625 15.6743 17.4553 16.5277 17.1255 17.3239C16.7957 18.1201 16.3123 18.8435 15.7029 19.4529C15.0935 20.0623 14.3701 20.5457 13.5739 20.8755C12.7777 21.2053 11.9243 21.375 11.0625 21.375C9.32202 21.375 7.65282 20.6836 6.42211 19.4529C5.1914 18.2222 4.5 16.553 4.5 14.8125C4.5 13.072 5.1914 11.4028 6.42211 10.1721C7.65282 8.9414 9.32202 8.25 11.0625 8.25ZM34.0312 0.75C35.1501 0.75 36.2232 1.19447 37.0144 1.98564C37.8055 2.77681 38.25 3.84987 38.25 4.96875V11.5312C38.25 12.0853 38.1409 12.6339 37.9289 13.1457C37.7169 13.6575 37.4061 14.1226 37.0144 14.5144C36.6226 14.9061 36.1575 15.2169 35.6457 15.4289C35.1339 15.6409 34.5853 15.75 34.0312 15.75H31.1194L26.355 19.8881C26.0835 20.1241 25.7498 20.277 25.3938 20.3286C25.0378 20.3802 24.6745 20.3282 24.3472 20.179C24.0199 20.0298 23.7424 19.7895 23.5478 19.487C23.3533 19.1844 23.2499 18.8322 23.25 18.4725V15.7238C22.2187 15.6085 21.2661 15.1171 20.5743 14.3437C19.8825 13.5702 19.5 12.5689 19.5 11.5312V4.96875C19.5 3.84987 19.9445 2.77681 20.7356 1.98564C21.5268 1.19447 22.5999 0.75 23.7188 0.75H34.0312Z" fill="#9B9B9C"/>
</svg>
