<svg width="33" height="28" viewBox="0 0 33 28" fill="none" xmlns="http://www.w3.org/2000/svg">
<g clip-path="url(#clip0)">
<path d="M33 2.01602C28.335 6.16002 22.7371 13.16 16.2061 23.016L12.9873 28.028C10.3003 24.668 5.97116 20.0014 0 14.028L2.99491 11.032L11 18.032C13.799 15.232 16.402 12.698 18.8092 10.43C21.2163 8.16202 23.1336 6.41202 24.5611 5.18002C25.9886 3.94802 27.2154 2.91202 28.2417 2.07202C29.268 1.23202 29.9864 0.681349 30.3969 0.420015L30.9847 0.0280151C31.0594 0.0280151 31.162 0.0466818 31.2926 0.0840151C31.4232 0.121348 31.6658 0.303349 32.0204 0.630015C32.3749 0.956682 32.7014 1.41868 33 2.01602Z" fill="#E35F5F"/>
</g>
<defs>
<clipPath id="clip0">
<rect width="33" height="28" fill="white"/>
</clipPath>
</defs>
</svg>
