<svg width="31" height="31" viewBox="0 0 31 31" fill="none" xmlns="http://www.w3.org/2000/svg">
<path d="M15.5 2.58333C13.8038 2.58333 12.1241 2.91743 10.557 3.56655C8.98988 4.21568 7.56596 5.16711 6.36653 6.36654C3.94419 8.78888 2.58333 12.0743 2.58333 15.5C2.58333 18.9257 3.94419 22.2111 6.36653 24.6335C7.56596 25.8329 8.98988 26.7843 10.557 27.4334C12.1241 28.0826 13.8038 28.4167 15.5 28.4167C18.9257 28.4167 22.2111 27.0558 24.6335 24.6335C27.0558 22.2111 28.4167 18.9257 28.4167 15.5C28.4167 13.8038 28.0826 12.1241 27.4334 10.557C26.7843 8.98988 25.8329 7.56596 24.6335 6.36654C23.434 5.16711 22.0101 4.21568 20.443 3.56655C18.8759 2.91743 17.1962 2.58333 15.5 2.58333ZM20.925 20.925L14.2083 16.7917V9.04167H16.1458V15.7583L21.9583 19.2458L20.925 20.925Z" fill="url(#paint0_linear)"/>
<defs>
<linearGradient id="paint0_linear" x1="2.58333" y1="15.5" x2="28.4167" y2="15.5" gradientUnits="userSpaceOnUse">
<stop stop-color="#ED213A"/>
<stop offset="1" stop-color="#93291E"/>
</linearGradient>
</defs>
</svg>
