<svg width="37" height="37" viewBox="0 0 37 37" fill="none" xmlns="http://www.w3.org/2000/svg">
<path d="M18.5 0.73999C8.68944 0.73999 0.738144 8.69129 0.738144 18.5C0.737901 20.8326 1.19716 23.1424 2.08969 25.2974C2.98222 27.4525 4.29054 29.4107 5.93993 31.0601C7.58932 32.7094 9.54746 34.0178 11.7025 34.9103C13.8576 35.8028 16.1674 36.2621 18.5 36.2618C28.3068 36.2618 36.26 28.3105 36.26 18.5C36.26 8.69129 28.3068 0.73999 18.5 0.73999ZM18.4981 32.56C16.6518 32.56 14.8235 32.1963 13.1176 31.4897C11.4118 30.7832 9.86181 29.7475 8.55622 28.4419C7.25063 27.1363 6.21498 25.5864 5.5084 23.8805C4.80182 22.1747 4.43814 20.3464 4.43814 18.5C4.43814 16.6536 4.80182 14.8253 5.5084 13.1195C6.21498 11.4136 7.25063 9.86366 8.55622 8.55807C9.86181 7.25248 11.4118 6.21683 13.1176 5.51024C14.8235 4.80366 16.6518 4.43999 18.4981 4.43999C20.3445 4.43999 22.1728 4.80366 23.8787 5.51024C25.5845 6.21683 27.1345 7.25248 28.4401 8.55807C29.7457 9.86366 30.7813 11.4136 31.4879 13.1195C32.1945 14.8253 32.5581 16.6536 32.5581 18.5C32.5581 20.3464 32.1945 22.1747 31.4879 23.8805C30.7813 25.5864 29.7457 27.1363 28.4401 28.4419C27.1345 29.7475 25.5845 30.7832 23.8787 31.4897C22.1728 32.1963 20.3445 32.56 18.4981 32.56ZM20.35 17.2605V7.39999H16.65V18.9532L10.0899 22.742L11.9399 25.9462L19.5526 21.5488C19.7849 21.3969 19.9781 21.1925 20.1166 20.9521C20.2551 20.7117 20.3351 20.4421 20.35 20.165V19.8542L28.194 12.1471C27.8316 11.645 27.4315 11.1712 26.997 10.73L20.35 17.2605Z" fill="#158819"/>
</svg>
