<svg width="52" height="51" viewBox="0 0 52 51" fill="none" xmlns="http://www.w3.org/2000/svg">
<path d="M26 42.5C30.5971 42.5 35.0059 40.7089 38.2565 37.5208C41.5072 34.3327 43.3333 30.0087 43.3333 25.5C43.3333 20.9913 41.5072 16.6673 38.2565 13.4792C35.0059 10.2911 30.5971 8.5 26 8.5C21.4029 8.5 16.9941 10.2911 13.7435 13.4792C10.4929 16.6673 8.66667 20.9913 8.66667 25.5C8.66667 30.0087 10.4929 34.3327 13.7435 37.5208C16.9941 40.7089 21.4029 42.5 26 42.5ZM26 4.25C28.8453 4.25 31.6628 4.79965 34.2915 5.86756C36.9202 6.93547 39.3087 8.50074 41.3207 10.474C43.3326 12.4472 44.9285 14.7898 46.0174 17.368C47.1062 19.9461 47.6667 22.7094 47.6667 25.5C47.6667 31.1358 45.3839 36.5409 41.3207 40.526C37.2574 44.5112 31.7464 46.75 26 46.75C14.0183 46.75 4.33333 37.1875 4.33333 25.5C4.33333 19.8641 6.61606 14.4591 10.6794 10.474C14.7426 6.48883 20.2536 4.25 26 4.25ZM27.0833 14.875V26.0312L36.8333 31.705L35.2083 34.3187L23.8333 27.625V14.875H27.0833Z" fill="url(#paint0_linear)"/>
<defs>
<linearGradient id="paint0_linear" x1="4.33333" y1="25.5" x2="47.6667" y2="25.5" gradientUnits="userSpaceOnUse">
<stop stop-color="#ED213A"/>
<stop offset="1" stop-color="#93291E"/>
</linearGradient>
</defs>
</svg>
