<svg width="54" height="54" viewBox="0 0 54 54" fill="none" xmlns="http://www.w3.org/2000/svg">
<g clip-path="url(#clip0)">
<path d="M52.7332 18.5625H46.4188L44.6638 14.175C42.8603 9.6641 38.5561 6.75 33.6971 6.75H20.3026C15.4447 6.75 11.1395 9.6641 9.3349 14.175L7.5799 18.5625H1.26654C0.442829 18.5625 -0.161507 19.3366 0.038884 20.135L0.671696 22.6663C0.81197 23.2295 1.31822 23.625 1.89935 23.625H4.01611C2.59967 24.8621 1.68736 26.6604 1.68736 28.6875V33.75C1.68736 35.4502 2.33705 36.9847 3.37486 38.1723V43.875C3.37486 45.7386 4.88623 47.25 6.74986 47.25H10.1249C11.9885 47.25 13.4999 45.7386 13.4999 43.875V40.5H40.4999V43.875C40.4999 45.7386 42.0112 47.25 43.8749 47.25H47.2499C49.1135 47.25 50.6249 45.7386 50.6249 43.875V38.1723C51.6627 36.9858 52.3124 35.4512 52.3124 33.75V28.6875C52.3124 26.6604 51.4001 24.8621 49.9847 23.625H52.1014C52.6826 23.625 53.1888 23.2295 53.3291 22.6663L53.9619 20.135C54.1612 19.3366 53.5569 18.5625 52.7332 18.5625ZM15.6019 16.682C16.3707 14.7604 18.2322 13.5 20.3026 13.5H33.6971C35.7675 13.5 37.629 14.7604 38.3979 16.682L40.4999 21.9375H13.4999L15.6019 16.682ZM10.1249 33.7289C8.09986 33.7289 6.74986 32.3831 6.74986 30.3645C6.74986 28.3458 8.09986 27 10.1249 27C12.1499 27 15.1874 30.028 15.1874 32.0467C15.1874 34.0654 12.1499 33.7289 10.1249 33.7289ZM43.8749 33.7289C41.8499 33.7289 38.8124 34.0654 38.8124 32.0467C38.8124 30.028 41.8499 27 43.8749 27C45.8999 27 47.2499 28.3458 47.2499 30.3645C47.2499 32.3831 45.8999 33.7289 43.8749 33.7289Z" fill="#A80000"/>
</g>
<defs>
<clipPath id="clip0">
<rect width="54" height="54" fill="white" transform="translate(-0.00012207)"/>
</clipPath>
</defs>
</svg>
