<svg width="31" height="43" viewBox="0 0 31 43" fill="none" xmlns="http://www.w3.org/2000/svg">
<path d="M18.9387 8.5165C21.2905 8.5165 23.1969 6.61001 23.1969 4.25823C23.1969 1.90646 21.2905 -3.05176e-05 18.9387 -3.05176e-05C16.5869 -3.05176e-05 14.6804 1.90646 14.6804 4.25823C14.6804 6.61001 16.5869 8.5165 18.9387 8.5165Z" fill="#848484"/>
<path d="M21.0209 21.8662C21.5426 22.6497 22.3218 23.2437 23.2161 23.5418L28.9115 25.441L30.2592 21.4042L24.5638 19.505L21.0231 14.1928C20.6111 13.5778 20.047 13.0798 19.3857 12.7471L16.3326 11.2205C15.4243 10.7664 14.383 10.6538 13.3986 10.9033L6.60031 12.6002C6.00361 12.7489 5.44614 13.0249 4.96616 13.4093C4.48619 13.7937 4.09507 14.2775 3.81966 14.8273L0 22.4687L3.80902 24.3743L7.62868 16.7329L12.3617 15.5491L8.52079 33.3188L0.698356 38.6991L3.11066 42.2079L10.9352 36.8255C11.8316 36.208 12.4533 35.2819 12.6811 34.2173L13.7819 29.1329L19.1409 33.1527L21.1104 43L25.2856 42.1632L23.3161 32.3117C23.1093 31.2855 22.5318 30.3714 21.6937 29.744L17.0714 26.2778L18.4489 18.0061L21.0209 21.8662Z" fill="#848484"/>
</svg>
