<?xml version="1.0" encoding="utf-8"?>
<!-- Generator: Adobe Illustrator 23.0.0, SVG Export Plug-In . SVG Version: 6.00 Build 0)  -->
<svg version="1.1" id="Layer_1" xmlns="http://www.w3.org/2000/svg" xmlns:xlink="http://www.w3.org/1999/xlink" x="0px" y="0px"
	 viewBox="0 0 61 43" style="enable-background:new 0 0 61 43;" xml:space="preserve">
<style type="text/css">
	.st0{fill:#9B9A9B;}
</style>
<path class="st0" d="M51.8,15.4h-1.5L40,2.3c-0.6-0.7-1.3-1.3-2.1-1.7C37,0.2,36.1,0,35.2,0H14.8c-2.5,0-4.7,1.5-5.7,3.9L4.6,15.6
	C1.9,16.3,0,18.6,0,21.5v10.8c0,0.8,0.7,1.5,1.5,1.5h4.6c0,5.1,4.1,9.2,9.1,9.2s9.1-4.1,9.1-9.2h12.2c0,5.1,4.1,9.2,9.2,9.2
	s9.2-4.1,9.2-9.2h4.6c0.8,0,1.5-0.7,1.5-1.5v-7.7C61,19.5,56.9,15.4,51.8,15.4z M15.3,38.4c-2.5,0-4.6-2.1-4.6-4.6
	c0-2.5,2.1-4.6,4.6-4.6s4.6,2.1,4.6,4.6C19.8,36.3,17.8,38.4,15.3,38.4z M22.1,15.4h-11l3.7-9.2h7.3V15.4z M26.7,15.4V6.1h8.5
	l7.3,9.2H26.7z M45.8,38.4c-2.5,0-4.6-2.1-4.6-4.6c0-2.5,2.1-4.6,4.6-4.6s4.6,2.1,4.6,4.6C50.3,36.3,48.3,38.4,45.8,38.4z"/>
</svg>
