<?xml version="1.0" encoding="utf-8"?>
<!-- Generator: Adobe Illustrator 23.0.0, SVG Export Plug-In . SVG Version: 6.00 Build 0)  -->
<svg version="1.1" xmlns="http://www.w3.org/2000/svg" xmlns:xlink="http://www.w3.org/1999/xlink" x="0px" y="0px"
	 viewBox="0 0 512 512" style="enable-background:new 0 0 512 512;" xml:space="preserve">
<style type="text/css">
	.st0{fill:#E21B1B;}
	.st1{fill:#F91E1E;}
	.st2{fill:#FFFFFF;}
</style>
<g id="Layer_1">
	<polygon class="st0" points="256,1 0,511 256,354.1 512,511 	"/>
	<polygon class="st1" points="256,1 0,511 256,354.1 256,203 	"/>
</g>
<g id="Layer_2">
	<path class="st2" d="M174.4,217.9c-5.3,4.7-6.2,12.8-2.1,18.6l45.7,67.9c0.4,0.7,11.1,16.2,27.2,18.5c1,0.2,1.9,0.7,2.5,1.6
		l5.9,8.7c1.4,2.2,3.7,3.6,6.1,4.1c2.5,0.5,5-0.1,7.1-1.7l43.2-31.9c2.1-1.5,3.5-3.8,3.9-6.4c0.4-2.6-0.1-5.3-1.6-7.4l-0.7-1
		c-2.6-3.9-3.7-8.8-2.8-13.4c1.9-10.4,3.5-25.3,0.8-37.2c-1.7-7.6-3.8-14.1-5.8-20.4c-2.9-8.1-5-16.5-6-25.1c-0.7-7.3-4.3-13.7-9-16
		c-2.8-1.4-6.1-1.1-8.6,0.8c-5.9,4.4-5.6,15.3-5.2,26.8c0.1,1.7,0.1,3.3,0.2,5c0.1,2.3,0.3,4.6,0.6,7c0.3,2.4,0.6,4.8,0.7,7.4
		c-0.4,1-1.2,1.8-2.2,2.2c-1.2,0.4-2.5,0.2-3.5-0.6c-3.1-2.5-5.8-5.6-8-9l0,0l-36.2-53.7c-2.7-4-7.3-6.2-12-5.6
		c-4.7,0.6-8.7,3.8-10.4,8.4l-1.5-2.2c-4.1-6-12-7.5-17.8-3.2c-5.8,4.3-7.2,12.6-3.1,18.7l1.5,2.2c-4.7,0.2-8.9,3-11,7.4
		s-1.7,9.7,1,13.7l8.8,13C179.3,215,176.6,216,174.4,217.9z M235.2,300.8"/>
	<path class="st2" d="M210,337.4c1.6,0,2.9-1.3,2.9-3c0-1.7-1.3-3-2.9-3c-19,0-34.5-16.2-34.5-36.1c0-1.7-1.3-3-2.9-3
		c-1.6,0-2.9,1.3-2.9,3C169.8,318.5,187.8,337.3,210,337.4z"/>
	<path class="st2" d="M187.1,292.3c0-1.7-1.3-3-2.9-3c-1.6,0-2.9,1.3-2.9,3c0,18.3,14.2,33.1,31.6,33.1c1.6,0,2.9-1.3,2.9-3
		c0-1.7-1.3-3-2.9-3C198.6,319.3,187.1,307.2,187.1,292.3z"/>
	<path class="st2" d="M302,156.9c-1.6,0-2.9,1.3-2.9,3c0,1.7,1.3,3,2.9,3c19,0,34.5,16.2,34.5,36.1c0,1.7,1.3,3,2.9,3
		c1.6,0,2.9-1.3,2.9-3C342.2,175.7,324.2,156.9,302,156.9z"/>
	<path class="st2" d="M299.1,174.9c14.3,0,25.8,12.1,25.9,27.1c0,1.7,1.3,3,2.9,3c1.6,0,2.9-1.3,2.9-3c0-18.3-14.2-33.1-31.6-33.1
		c-1.6,0-2.9,1.3-2.9,3C296.3,173.6,297.5,174.9,299.1,174.9z"/>
	<path d="M185.4,221.3l-1.9-0.3L185.4,221.3z"/>
	<path d="M183.4,221"/>
	<path d="M238.2,303.4"/>
	<path class="st2" d="M229.7,287.3"/>
</g>
</svg>
