<svg width="24" height="34" viewBox="0 0 24 34" fill="none" xmlns="http://www.w3.org/2000/svg">
<path d="M12 34C3.99943 23.647 0 16.2809 0 11.9C-2.34822e-08 10.3373 0.310389 8.78984 0.913445 7.34607C1.5165 5.90229 2.40042 4.59045 3.51472 3.48543C4.62902 2.38041 5.95189 1.50386 7.4078 0.905834C8.86371 0.307803 10.4241 0 12 0C13.5759 0 15.1363 0.307803 16.5922 0.905834C18.0481 1.50386 19.371 2.38041 20.4853 3.48543C21.5996 4.59045 22.4835 5.90229 23.0866 7.34607C23.6896 8.78984 24 10.3373 24 11.9C24 16.2809 20.0006 23.647 12 34ZM12 18.7C13.8186 18.7 15.5628 17.9836 16.8487 16.7083C18.1347 15.4331 18.8571 13.7035 18.8571 11.9C18.8571 10.0965 18.1347 8.36692 16.8487 7.09167C15.5628 5.81643 13.8186 5.1 12 5.1C10.1814 5.1 8.43723 5.81643 7.15127 7.09167C5.8653 8.36692 5.14286 10.0965 5.14286 11.9C5.14286 13.7035 5.8653 15.4331 7.15127 16.7083C8.43723 17.9836 10.1814 18.7 12 18.7Z" fill="#E70909"/>
</svg>
