<?xml version="1.0" encoding="utf-8"?>
<!-- Generator: Adobe Illustrator 25.2.3, SVG Export Plug-In . SVG Version: 6.00 Build 0)  -->
<svg version="1.1" id="Layer_1" xmlns="http://www.w3.org/2000/svg" xmlns:xlink="http://www.w3.org/1999/xlink" x="0px" y="0px"
	 viewBox="0 0 74 47" style="enable-background:new 0 0 74 47;" xml:space="preserve">
<style type="text/css">
	.st0{fill:#9B9B9C;}
</style>
<path class="st0" d="M3.5,19c-0.9,0-1.8,0.4-2.4,1c-0.6,0.7-1,1.5-1,2.5v19.2h3.5c0,1.4,0.5,2.7,1.5,3.7c1,1,2.3,1.5,3.7,1.5
	c1.4,0,2.7-0.6,3.7-1.5c1-1,1.5-2.3,1.5-3.7h10.4c0,1.4,0.5,2.7,1.5,3.7c1,1,2.3,1.5,3.7,1.5s2.7-0.6,3.7-1.5c1-1,1.5-2.3,1.5-3.7
	H38V33l-5.2-7h-5.2v-7H3.5z M15.5,22.5l6.9,7l-6.9,7v-5.2H5.2v-3.5h10.4V22.5z M27.6,28.6H32l3.4,4.4h-7.7V28.6z M8.6,39.1
	c0.7,0,1.3,0.3,1.8,0.8c0.5,0.5,0.8,1.2,0.8,1.9s-0.3,1.4-0.8,1.9c-0.5,0.5-1.1,0.8-1.8,0.8c-0.7,0-1.3-0.3-1.8-0.8
	C6.3,43.1,6,42.4,6,41.8s0.3-1.4,0.8-1.9C7.3,39.4,7.9,39.1,8.6,39.1z M29.4,39.1c0.7,0,1.3,0.3,1.8,0.8c0.5,0.5,0.8,1.2,0.8,1.9
	s-0.3,1.4-0.8,1.9c-0.5,0.5-1.1,0.8-1.8,0.8c-0.7,0-1.3-0.3-1.8-0.8c-0.5-0.5-0.8-1.2-0.8-1.9s0.3-1.4,0.8-1.9
	C28,39.4,28.7,39.1,29.4,39.1z"/>
<path class="st0" d="M73.3,27.8V11.6c0-0.3-0.1-0.6-0.2-0.9c-0.1-0.3-0.3-0.5-0.5-0.7L62.1,0.5C61.7,0.2,61.2,0,60.7,0
	c-0.5,0-1,0.2-1.4,0.5L48.7,10c-0.2,0.2-0.4,0.4-0.5,0.7C48.1,11,48,11.3,48,11.6v16.1c0,1.2,1,2.1,2.1,2.1h4.2c1.2,0,2.1-1,2.1-2.1
	v-8.4h8.4v8.4c0,1.2,0.9,2.1,2.1,2.1h4.2C72.4,29.9,73.3,28.9,73.3,27.8z"/>
</svg>
