<svg width="56" height="69" viewBox="0 0 56 69" fill="none" xmlns="http://www.w3.org/2000/svg">
<path d="M53 43.975C53 45.7 50.2 46.85 46.9333 47.425C44.8333 42.5375 38.6333 38.8 33.7333 36.2125C34.2 35.35 35.0333 34.3625 35.5 33.5H38.5C45.7333 33.2125 53 39.0875 53 43.975ZM20.5 33.5L17 33.625C9.76667 33.625 3 39.0875 3 43.975C3 45.7 5.8 46.85 9.06667 47.425C11.1667 42.5375 17.3667 38.8 22.2667 36.2125L20.5 33.5ZM28 34.5C33.1333 34.5 37.3333 29.325 37.3333 23C37.3333 16.675 33.1333 11.5 28 11.5C22.8667 11.5 18.6667 16.675 18.6667 23C18.6667 29.325 22.8667 34.5 28 34.5ZM28 37.375C18.4333 37.375 9.33333 44.85 9.33333 51.75C9.33333 57.5 28 57.5 28 57.5C28 57.5 46.6667 57.5 46.6667 51.75C46.6667 44.85 37.5667 37.375 28 37.375ZM36.5 30.75H38C41.9667 30.75 46 27.0125 46 22.125C46 17.2375 42.9667 13.5 39 13.5C37.8333 13.5 36.9 13.7875 35.9667 14.3625C37.8333 17.2375 38.5 19.975 38.5 24C38.5 26.0125 36.9667 29.025 36.5 30.75ZM18 30.75H19.5C19.0333 29.025 17.5 25.5125 17.5 23.5C17.5 19.475 18.1667 17.2375 20.0333 14.3625C19.1 13.7875 18.1667 13.5 17 13.5C13.0333 13.5 10 17.2375 10 22.125C10 27.0125 14.0333 30.75 18 30.75Z" fill="url(#paint0_linear)"/>
<defs>
<linearGradient id="paint0_linear" x1="3" y1="34.5" x2="53" y2="34.5" gradientUnits="userSpaceOnUse">
<stop stop-color="#ED213A"/>
<stop offset="1" stop-color="#93291E"/>
</linearGradient>
</defs>
</svg>
