<svg width="35" height="35" viewBox="0 0 35 35" fill="none" xmlns="http://www.w3.org/2000/svg">
<path d="M17.5 8.74996C19.1108 8.74996 20.4166 7.44412 20.4166 5.83329C20.4166 4.22246 19.1108 2.91663 17.5 2.91663C15.8891 2.91663 14.5833 4.22246 14.5833 5.83329C14.5833 7.44412 15.8891 8.74996 17.5 8.74996Z" fill="white"/>
<path d="M23.1729 11.827C22.6041 11.2583 21.6271 10.2083 19.7312 10.2083H16.0271C12.0166 10.1937 8.74998 6.92704 8.74998 2.91663H5.83331C5.83331 7.52496 8.9104 11.4333 13.125 12.702V32.0833H16.0416V23.3333H18.9583V32.0833H21.875V14.6562L27.6354 20.4166L29.6916 18.3604L23.1729 11.827Z" fill="white"/>
</svg>
