<svg width="32" height="32" viewBox="0 0 32 32" fill="none" xmlns="http://www.w3.org/2000/svg">
<path d="M21.75 15H10.25C10.1125 15 10 15.1125 10 15.25V16.75C10 16.8875 10.1125 17 10.25 17H21.75C21.8875 17 22 16.8875 22 16.75V15.25C22 15.1125 21.8875 15 21.75 15Z" fill="#4A0E0E" fill-opacity="0.73"/>
<path d="M16 2C8.26875 2 2 8.26875 2 16C2 23.7312 8.26875 30 16 30C23.7312 30 30 23.7312 30 16C30 8.26875 23.7312 2 16 2ZM16 28.5C9.58125 28.5 3.5 22.4187 3.5 16C3.5 9.58125 9.58125 3.5 16 3.5C22.4187 3.5 28.5 9.58125 28.5 16C28.5 22.4187 22.4187 28.5 16 28.5Z" fill="#4A0E0E" fill-opacity="0.73"/>
<line x1="15.7485" y1="7.95322" x2="16.7485" y2="23.9532" stroke="#4A0E0E" stroke-width="1.5"/>
</svg>
