<svg width="115" height="22" viewBox="0 0 115 22" fill="none" xmlns="http://www.w3.org/2000/svg">
<path d="M19.4253 7.55329L13.9941 6.76395L11.5661 1.8418C11.4998 1.70703 11.3907 1.59794 11.256 1.53162C10.918 1.36477 10.5073 1.50381 10.3383 1.8418L7.91036 6.76395L2.47909 7.55329C2.32936 7.57469 2.19245 7.64528 2.08763 7.75223C1.96091 7.88248 1.89109 8.0577 1.89349 8.2394C1.8959 8.42111 1.97034 8.59442 2.10047 8.72126L6.03006 12.5525L5.10168 17.9623C5.07991 18.0882 5.09383 18.2176 5.14188 18.3359C5.18992 18.4543 5.27016 18.5568 5.37349 18.6318C5.47683 18.7069 5.59913 18.7515 5.72652 18.7606C5.85391 18.7696 5.9813 18.7429 6.09424 18.6832L10.9522 16.1291L15.8102 18.6832C15.9428 18.7538 16.0968 18.7773 16.2444 18.7517C16.6167 18.6875 16.8669 18.3345 16.8028 17.9623L15.8744 12.5525L19.804 8.72126C19.9109 8.61644 19.9815 8.47954 20.0029 8.3298C20.0607 7.95545 19.7997 7.60891 19.4253 7.55329Z" fill="#FFC700"/>
<path d="M42.6991 7.55329L37.2679 6.76395L34.84 1.8418C34.7736 1.70703 34.6645 1.59794 34.5298 1.53162C34.1918 1.36477 33.7811 1.50381 33.6121 1.8418L31.1842 6.76395L25.7529 7.55329C25.6032 7.57469 25.4663 7.64528 25.3614 7.75223C25.2347 7.88248 25.1649 8.0577 25.1673 8.2394C25.1697 8.42111 25.2441 8.59442 25.3743 8.72126L29.3039 12.5525L28.3755 17.9623C28.3537 18.0882 28.3676 18.2176 28.4157 18.3359C28.4637 18.4543 28.544 18.5568 28.6473 18.6318C28.7506 18.7069 28.8729 18.7515 29.0003 18.7606C29.1277 18.7696 29.2551 18.7429 29.368 18.6832L34.226 16.1291L39.084 18.6832C39.2166 18.7538 39.3706 18.7773 39.5182 18.7517C39.8905 18.6875 40.1407 18.3345 40.0766 17.9623L39.1482 12.5525L43.0778 8.72126C43.1847 8.61644 43.2553 8.47954 43.2767 8.3298C43.3345 7.95545 43.0735 7.60891 42.6991 7.55329Z" fill="#FFC700"/>
<path d="M65.9729 7.55329L60.5417 6.76395L58.1138 1.8418C58.0474 1.70703 57.9383 1.59794 57.8036 1.53162C57.4656 1.36477 57.0549 1.50381 56.8859 1.8418L54.458 6.76395L49.0267 7.55329C48.877 7.57469 48.7401 7.64528 48.6352 7.75223C48.5085 7.88248 48.4387 8.0577 48.4411 8.2394C48.4435 8.42111 48.518 8.59442 48.6481 8.72126L52.5777 12.5525L51.6493 17.9623C51.6275 18.0882 51.6414 18.2176 51.6895 18.3359C51.7375 18.4543 51.8178 18.5568 51.9211 18.6318C52.0244 18.7069 52.1467 18.7515 52.2741 18.7606C52.4015 18.7696 52.5289 18.7429 52.6418 18.6832L57.4998 16.1291L62.3578 18.6832C62.4904 18.7538 62.6444 18.7773 62.792 18.7517C63.1643 18.6875 63.4145 18.3345 63.3504 17.9623L62.422 12.5525L66.3516 8.72126C66.4585 8.61644 66.5291 8.47954 66.5505 8.3298C66.6083 7.95545 66.3473 7.60891 65.9729 7.55329Z" fill="#FFC700"/>
<path d="M89.2467 7.55329L83.8155 6.76395L81.3876 1.8418C81.3212 1.70703 81.2121 1.59794 81.0774 1.53162C80.7394 1.36477 80.3287 1.50381 80.1597 1.8418L77.7318 6.76395L72.3005 7.55329C72.1508 7.57469 72.0139 7.64528 71.909 7.75223C71.7823 7.88248 71.7125 8.0577 71.7149 8.2394C71.7173 8.42111 71.7918 8.59442 71.9219 8.72126L75.8515 12.5525L74.9231 17.9623C74.9013 18.0882 74.9152 18.2176 74.9633 18.3359C75.0113 18.4543 75.0916 18.5568 75.1949 18.6318C75.2982 18.7069 75.4205 18.7515 75.5479 18.7606C75.6753 18.7696 75.8027 18.7429 75.9156 18.6832L80.7736 16.1291L85.6316 18.6832C85.7642 18.7538 85.9183 18.7773 86.0659 18.7517C86.4381 18.6875 86.6883 18.3345 86.6242 17.9623L85.6958 12.5525L89.6254 8.72126C89.7323 8.61644 89.8029 8.47954 89.8243 8.3298C89.8821 7.95545 89.6211 7.60891 89.2467 7.55329Z" fill="#FFC700"/>
<path d="M112.521 7.55329L107.089 6.76395L104.661 1.8418C104.595 1.70703 104.486 1.59794 104.351 1.53162C104.013 1.36477 103.602 1.50381 103.433 1.8418L101.006 6.76395L95.5743 7.55329C95.4246 7.57469 95.2877 7.64528 95.1828 7.75223C95.0561 7.88248 94.9863 8.0577 94.9887 8.2394C94.9911 8.42111 95.0656 8.59442 95.1957 8.72126L99.1253 12.5525L98.1969 17.9623C98.1751 18.0882 98.189 18.2176 98.2371 18.3359C98.2851 18.4543 98.3654 18.5568 98.4687 18.6318C98.572 18.7069 98.6943 18.7515 98.8217 18.7606C98.9491 18.7696 99.0765 18.7429 99.1895 18.6832L104.047 16.1291L108.905 18.6832C109.038 18.7538 109.192 18.7773 109.34 18.7517C109.712 18.6875 109.962 18.3345 109.898 17.9623L108.97 12.5525L112.899 8.72126C113.006 8.61644 113.077 8.47954 113.098 8.3298C113.156 7.95545 112.895 7.60891 112.521 7.55329ZM107.316 12.0134L108.088 16.512L104.047 14.39L100.007 16.5141L100.779 12.0155L97.5102 8.82822L102.028 8.1715L104.047 4.07933L106.067 8.1715L110.585 8.82822L107.316 12.0134Z" fill="#FFC700"/>
</svg>
