<svg width="75" height="75" viewBox="0 0 75 75" fill="none" xmlns="http://www.w3.org/2000/svg">
<path d="M37.5002 0.539978C17.0836 0.539978 0.536316 17.0873 0.536316 37.5C0.53581 42.3543 1.49156 47.1611 3.34899 51.646C5.20642 56.1309 7.92914 60.206 11.3616 63.6385C14.7942 67.071 18.8692 69.7937 23.3541 71.6512C27.839 73.5086 32.6459 74.4643 37.5002 74.4638C57.909 74.4638 74.4602 57.9165 74.4602 37.5C74.4602 17.0873 57.909 0.539978 37.5002 0.539978ZM37.4963 66.76C33.6538 66.76 29.849 66.0031 26.299 64.5327C22.749 63.0622 19.5234 60.907 16.8064 58.1899C14.0893 55.4729 11.9341 52.2473 10.4636 48.6973C8.99315 45.1473 8.23632 41.3425 8.23632 37.5C8.23632 33.6575 8.99315 29.8526 10.4636 26.3027C11.9341 22.7527 14.0893 19.5271 16.8064 16.81C19.5234 14.093 22.749 11.9377 26.299 10.4673C29.849 8.99681 33.6538 8.23998 37.4963 8.23998C41.3388 8.23998 45.1436 8.99681 48.6936 10.4673C52.2436 11.9377 55.4692 14.093 58.1863 16.81C60.9033 19.5271 63.0586 22.7527 64.529 26.3027C65.9995 29.8526 66.7563 33.6575 66.7563 37.5C66.7563 41.3425 65.9995 45.1473 64.529 48.6973C63.0586 52.2473 60.9033 55.4729 58.1863 58.1899C55.4692 60.907 52.2436 63.0622 48.6936 64.5327C45.1436 66.0031 41.3388 66.76 37.4963 66.76ZM41.3502 34.9205V14.4H33.6502V38.4432L19.9981 46.328L23.8481 52.9962L39.6908 43.8448C40.1741 43.5288 40.5762 43.1034 40.8645 42.6031C41.1527 42.1028 41.3191 41.5416 41.3502 40.965V40.3182L57.6742 24.2791C56.92 23.2342 56.0873 22.2483 55.1832 21.33L41.3502 34.9205Z" fill="#8E1C1C"/>
</svg>
