<svg width="78" height="43" viewBox="0 0 78 43" fill="none" xmlns="http://www.w3.org/2000/svg">
<path d="M7.09091 -3.05176e-05H53.1818L63.8182 14.3333H70.9091C74.8445 14.3333 78 17.5225 78 21.5V32.25H70.9091C70.9091 35.101 69.7885 37.8354 67.7938 39.8514C65.7991 41.8674 63.0937 43 60.2727 43C57.4518 43 54.7464 41.8674 52.7517 39.8514C50.757 37.8354 49.6364 35.101 49.6364 32.25H28.3636C28.3636 35.101 27.243 37.8354 25.2483 39.8514C23.2536 41.8674 20.5482 43 17.7273 43C14.9063 43 12.2009 41.8674 10.2062 39.8514C8.21152 37.8354 7.09091 35.101 7.09091 32.25H0V7.16664C0 3.18914 3.15545 -3.05176e-05 7.09091 -3.05176e-05ZM5.31818 5.37497V14.3333H33.6818V5.37497H5.31818ZM39 5.37497V14.3333H57.2236L50.5227 5.37497H39ZM17.7273 26.875C16.3168 26.875 14.9641 27.4413 13.9667 28.4493C12.9694 29.4573 12.4091 30.8244 12.4091 32.25C12.4091 33.6755 12.9694 35.0427 13.9667 36.0507C14.9641 37.0587 16.3168 37.625 17.7273 37.625C19.1377 37.625 20.4904 37.0587 21.4878 36.0507C22.4851 35.0427 23.0455 33.6755 23.0455 32.25C23.0455 30.8244 22.4851 29.4573 21.4878 28.4493C20.4904 27.4413 19.1377 26.875 17.7273 26.875ZM60.2727 26.875C58.8623 26.875 57.5096 27.4413 56.5122 28.4493C55.5149 29.4573 54.9545 30.8244 54.9545 32.25C54.9545 33.6755 55.5149 35.0427 56.5122 36.0507C57.5096 37.0587 58.8623 37.625 60.2727 37.625C61.6832 37.625 63.0359 37.0587 64.0332 36.0507C65.0306 35.0427 65.5909 33.6755 65.5909 32.25C65.5909 30.8244 65.0306 29.4573 64.0332 28.4493C63.0359 27.4413 61.6832 26.875 60.2727 26.875Z" fill="#848484"/>
</svg>
