<svg width="19" height="21" viewBox="0 0 19 21" fill="none" xmlns="http://www.w3.org/2000/svg">
<path d="M18.1004 14.983L12.5662 20.5171C12.095 20.9884 11.3216 20.9884 10.8504 20.5171C10.3791 20.0459 10.3791 19.2725 10.8504 18.8013L14.3304 15.3334H2.04165C1.37706 15.3334 0.833313 14.7896 0.833313 14.125V2.04171C0.833313 1.37712 1.37706 0.833374 2.04165 0.833374C2.70623 0.833374 3.24998 1.37712 3.24998 2.04171V12.9167H14.3304L10.8504 9.44879C10.3791 8.97754 10.3791 8.20421 10.8504 7.73296C11.3216 7.26171 12.095 7.26171 12.5662 7.73296L18.1004 13.2671C18.5716 13.7384 18.5716 14.5117 18.1004 14.983Z" fill="#989898"/>
</svg>
