<svg width="26" height="25" viewBox="0 0 26 25" fill="none" xmlns="http://www.w3.org/2000/svg">
<path d="M25.5 17.3062C25.5 18.1812 24.1 18.7645 22.4667 19.0562C21.4167 16.577 18.3167 14.6812 15.8667 13.3687C16.1 12.9312 16.5167 12.4303 16.75 11.9928H18.25C21.8667 11.847 25.5 14.827 25.5 17.3062ZM9.25 11.9928L7.5 12.0562C3.88333 12.0562 0.5 14.827 0.5 17.3062C0.5 18.1812 1.9 18.7645 3.53333 19.0562C4.58333 16.577 7.68333 14.6812 10.1333 13.3687L9.25 11.9928ZM13 12.5C15.5667 12.5 17.6667 9.87504 17.6667 6.66671C17.6667 3.45837 15.5667 0.833374 13 0.833374C10.4333 0.833374 8.33333 3.45837 8.33333 6.66671C8.33333 9.87504 10.4333 12.5 13 12.5ZM13 13.9584C8.21667 13.9584 3.66667 17.75 3.66667 21.25C3.66667 24.1667 13 24.1667 13 24.1667C13 24.1667 22.3333 24.1667 22.3333 21.25C22.3333 17.75 17.7833 13.9584 13 13.9584ZM17.25 10.5979H18C19.9833 10.5979 22 8.70203 22 6.22287C22 3.7437 20.4833 1.84787 18.5 1.84787C17.9167 1.84787 17.45 1.9937 16.9833 2.28537C17.9167 3.7437 18.25 5.13229 18.25 7.17395C18.25 8.19479 17.4833 9.72287 17.25 10.5979ZM8 10.5979H8.75C8.51667 9.72287 7.75 7.94116 7.75 6.92033C7.75 4.87866 8.08333 3.7437 9.01667 2.28537C8.55 1.9937 8.08333 1.84787 7.5 1.84787C5.51667 1.84787 4 3.7437 4 6.22287C4 8.70203 6.01667 10.5979 8 10.5979Z" fill="url(#paint0_linear)"/>
<defs>
<linearGradient id="paint0_linear" x1="0.5" y1="12.5" x2="25.5" y2="12.5" gradientUnits="userSpaceOnUse">
<stop stop-color="#ED213A"/>
<stop offset="1" stop-color="#93291E"/>
</linearGradient>
</defs>
</svg>
