<?xml version="1.0" encoding="utf-8"?>
<!-- Generator: Adobe Illustrator 23.0.0, SVG Export Plug-In . SVG Version: 6.00 Build 0)  -->
<svg version="1.1" id="Layer_1" xmlns="http://www.w3.org/2000/svg" xmlns:xlink="http://www.w3.org/1999/xlink" x="0px" y="0px"
	 viewBox="0 0 39 39" style="enable-background:new 0 0 39 39;" xml:space="preserve">
<style type="text/css">
	.st0{fill:#9B9B9C;}
</style>
<path class="st0" d="M19.5,9.8c1.8,0,3.3-1.5,3.3-3.3c0-1.8-1.5-3.3-3.3-3.3s-3.3,1.5-3.3,3.3C16.3,8.3,17.7,9.8,19.5,9.8z"/>
<path class="st0" d="M25.8,13.2c-0.6-0.6-1.7-1.8-3.8-1.8h-4.1c-4.5,0-8.1-3.7-8.1-8.1H6.5c0,5.1,3.4,9.5,8.1,10.9v21.6h3.3V26h3.3
	v9.8h3.3V16.3l6.4,6.4l2.3-2.3L25.8,13.2z"/>
</svg>
