<svg width="38" height="38" viewBox="0 0 38 38" fill="none" xmlns="http://www.w3.org/2000/svg">
<path d="M35.889 0H19.0001C17.839 0 16.889 0.95 16.889 2.11111V5.51L16.9101 5.53111L27.4657 15.0311C28.7957 16.2133 29.5557 17.9444 29.5557 19.7389V21.1111H33.7779V25.3333H29.5557V29.5556H33.7779V33.7778H29.5557V38H35.889C37.0501 38 38.0001 37.05 38.0001 35.8889V2.11111C38.0001 0.95 37.0501 0 35.889 0ZM25.3335 8.44444H21.1113V4.22222H25.3335V8.44444ZM33.7779 16.8889H29.5557V12.6667H33.7779V16.8889ZM33.7779 8.44444H29.5557V4.22222H33.7779V8.44444Z" fill="#9B9B9C"/>
<path d="M25.3335 35.8889V19.7389C25.3328 19.4443 25.2704 19.1531 25.1504 18.8841C25.0305 18.615 24.8555 18.3741 24.6368 18.1767L14.0812 8.6767C13.6986 8.3175 13.1916 8.12073 12.6668 8.12781C12.1601 8.12781 11.6535 8.31781 11.2524 8.6767L0.696799 18.1767C0.474921 18.3715 0.297787 18.6119 0.177539 18.8816C0.0572903 19.1512 -0.0032281 19.4437 0.000132688 19.7389V35.8889C0.000132688 37.05 0.950132 38 2.11124 38H6.33347C7.49458 38 8.44458 37.05 8.44458 35.8889V27.4445H16.889V35.8889C16.889 37.05 17.839 38 19.0001 38H23.2224C24.3835 38 25.3335 37.05 25.3335 35.8889Z" fill="#9B9B9C"/>
</svg>
