<svg width="41" height="41" viewBox="0 0 41 41" fill="none" xmlns="http://www.w3.org/2000/svg">
    <path d="M34.1668 17.9377C33.7137 17.9377 33.2792 18.1176 32.9589 18.438C32.6385 18.7584 32.4585 19.1929 32.4585 19.646V31.6043C32.4585 32.0574 32.2785 32.4919 31.9581 32.8123C31.6378 33.1327 31.2032 33.3127 30.7502 33.3127H6.8335C6.38042 33.3127 5.9459 33.1327 5.62552 32.8123C5.30515 32.4919 5.12516 32.0574 5.12516 31.6043V17.9377C5.12516 17.4846 5.30515 17.0501 5.62552 16.7297C5.9459 16.4093 6.38042 16.2293 6.8335 16.2293H10.2502C10.6227 16.2488 10.9913 16.1457 11.2998 15.936C11.6083 15.7262 11.8396 15.4213 11.9585 15.0677L12.881 12.266C12.9956 11.9267 13.2139 11.632 13.5052 11.4235C13.7964 11.2151 14.1458 11.1034 14.5039 11.1043H23.9168C24.3699 11.1043 24.8044 10.9243 25.1248 10.604C25.4452 10.2836 25.6252 9.84907 25.6252 9.396C25.6252 8.94292 25.4452 8.5084 25.1248 8.18802C24.8044 7.86765 24.3699 7.68766 23.9168 7.68766H14.4185C13.3449 7.68967 12.299 8.02879 11.4285 8.65715C10.558 9.28551 9.9068 10.1714 9.56683 11.1897L9.02016 12.8981H6.8335C5.47426 12.8981 4.1707 13.438 3.20957 14.3992C2.24845 15.3603 1.7085 16.6638 1.7085 18.0231V31.6897C1.7085 33.049 2.24845 34.3525 3.20957 35.3137C4.1707 36.2748 5.47426 36.8147 6.8335 36.8147H30.7502C32.1094 36.8147 33.413 36.2748 34.3741 35.3137C35.3352 34.3525 35.8752 33.049 35.8752 31.6897V19.7314C35.8867 19.5 35.8511 19.2686 35.7705 19.0514C35.6898 18.8342 35.5658 18.6356 35.406 18.4678C35.2462 18.3 35.054 18.1665 34.8409 18.0754C34.6279 17.9842 34.3985 17.9374 34.1668 17.9377V17.9377ZM18.7918 16.2293C17.4403 16.2293 16.1192 16.6301 14.9954 17.381C13.8717 18.1318 12.9959 19.199 12.4787 20.4477C11.9615 21.6963 11.8261 23.0702 12.0898 24.3958C12.3535 25.7213 13.0043 26.9389 13.9599 27.8946C14.9156 28.8502 16.1332 29.501 17.4587 29.7647C18.7842 30.0284 20.1582 29.893 21.4068 29.3758C22.6555 28.8586 23.7227 27.9828 24.4735 26.8591C25.2244 25.7353 25.6252 24.4142 25.6252 23.0627C25.6252 21.2504 24.9052 19.5123 23.6237 18.2308C22.3422 16.9493 20.6041 16.2293 18.7918 16.2293V16.2293ZM18.7918 26.4793C18.1161 26.4793 17.4555 26.2789 16.8936 25.9035C16.3318 25.5281 15.8938 24.9945 15.6352 24.3702C15.3766 23.7459 15.309 23.0589 15.4408 22.3961C15.5726 21.7333 15.8981 21.1245 16.3759 20.6467C16.8537 20.1689 17.4625 19.8435 18.1253 19.7116C18.788 19.5798 19.475 19.6475 20.0993 19.9061C20.7236 20.1647 21.2573 20.6026 21.6327 21.1645C22.0081 21.7263 22.2085 22.3869 22.2085 23.0627C22.2085 23.9688 21.8485 24.8379 21.2078 25.4786C20.567 26.1194 19.698 26.4793 18.7918 26.4793ZM37.5835 7.68766H35.8752V5.97933C35.8752 5.52625 35.6952 5.09173 35.3748 4.77136C35.0544 4.45098 34.6199 4.271 34.1668 4.271C33.7137 4.271 33.2792 4.45098 32.9589 4.77136C32.6385 5.09173 32.4585 5.52625 32.4585 5.97933V7.68766H30.7502C30.2971 7.68766 29.8626 7.86765 29.5422 8.18802C29.2218 8.5084 29.0418 8.94292 29.0418 9.396C29.0418 9.84907 29.2218 10.2836 29.5422 10.604C29.8626 10.9243 30.2971 11.1043 30.7502 11.1043H32.4585V12.8127C32.4585 13.2657 32.6385 13.7003 32.9589 14.0206C33.2792 14.341 33.7137 14.521 34.1668 14.521C34.6199 14.521 35.0544 14.341 35.3748 14.0206C35.6952 13.7003 35.8752 13.2657 35.8752 12.8127V11.1043H37.5835C38.0366 11.1043 38.4711 10.9243 38.7915 10.604C39.1118 10.2836 39.2918 9.84907 39.2918 9.396C39.2918 8.94292 39.1118 8.5084 38.7915 8.18802C38.4711 7.86765 38.0366 7.68766 37.5835 7.68766Z"
          fill="black"/>
</svg>
