<svg width="16" height="16" viewBox="0 0 16 16" fill="none" xmlns="http://www.w3.org/2000/svg">
<g opacity="0.25" clip-path="url(#clip0_2073_529)">
<path d="M10 7L8 9L6 7" stroke="black" stroke-linecap="round" stroke-linejoin="round"/>
<path d="M1.33337 8.00016C1.33337 4.85747 1.33337 3.28612 2.30968 2.30981C3.286 1.3335 4.85734 1.3335 8.00004 1.3335C11.1427 1.3335 12.7141 1.3335 13.6904 2.30981C14.6667 3.28612 14.6667 4.85747 14.6667 8.00016C14.6667 11.1429 14.6667 12.7142 13.6904 13.6905C12.7141 14.6668 11.1427 14.6668 8.00004 14.6668C4.85734 14.6668 3.286 14.6668 2.30968 13.6905C1.33337 12.7142 1.33337 11.1429 1.33337 8.00016Z" stroke="black"/>
</g>
<defs>
<clipPath id="clip0_2073_529">
<rect width="16" height="16" fill="white"/>
</clipPath>
</defs>
</svg>
