<svg width="16" height="138" viewBox="0 0 16 138" fill="none" xmlns="http://www.w3.org/2000/svg">
<path d="M8.7071 0.292892C8.31658 -0.0976334 7.68341 -0.0976333 7.29289 0.292892L0.928929 6.65685C0.538405 7.04738 0.538405 7.68054 0.928929 8.07107C1.31945 8.46159 1.95262 8.46159 2.34314 8.07107L8 2.41421L13.6569 8.07107C14.0474 8.46159 14.6805 8.46159 15.0711 8.07107C15.4616 7.68054 15.4616 7.04738 15.0711 6.65685L8.7071 0.292892ZM9 73L9 1L7 1L7 73L9 73Z" fill="#950000"/>
<path d="M7.29289 137.707C7.68341 138.098 8.31658 138.098 8.7071 137.707L15.0711 131.343C15.4616 130.953 15.4616 130.319 15.0711 129.929C14.6805 129.538 14.0474 129.538 13.6569 129.929L8 135.586L2.34314 129.929C1.95262 129.538 1.31945 129.538 0.92893 129.929C0.538405 130.319 0.538405 130.953 0.928929 131.343L7.29289 137.707ZM7 69L7 137L9 137L9 69L7 69Z" fill="#950000"/>
</svg>
