<svg width="52" height="44" viewBox="0 0 52 44" fill="none" xmlns="http://www.w3.org/2000/svg">
<path d="M33.5833 8.58534C35.9667 8.58534 37.9167 6.65363 37.9167 4.29265C37.9167 1.93168 35.9667 -3.05176e-05 33.5833 -3.05176e-05C31.2 -3.05176e-05 29.25 1.93168 29.25 4.29265C29.25 6.65363 31.2 8.58534 33.5833 8.58534ZM10.8333 22.5366C4.76667 22.5366 0 27.2585 0 33.2683C0 39.278 4.76667 44 10.8333 44C16.9 44 21.6667 39.278 21.6667 33.2683C21.6667 27.2585 16.9 22.5366 10.8333 22.5366ZM10.8333 40.7805C6.71667 40.7805 3.25 37.3463 3.25 33.2683C3.25 29.1902 6.71667 25.7561 10.8333 25.7561C14.95 25.7561 18.4167 29.1902 18.4167 33.2683C18.4167 37.3463 14.95 40.7805 10.8333 40.7805ZM23.4 19.317L28.6 14.1658L30.3333 15.8829C33.15 18.6731 36.8333 20.3902 41.3833 20.3902V16.0975C38.1333 16.0975 35.5333 14.8097 33.5833 12.878L29.4667 8.79997C28.3833 7.94143 27.3 7.51217 26 7.51217C24.7 7.51217 23.6167 7.94143 22.9667 8.79997L16.9 14.8097C16.0333 15.6683 15.6 16.7414 15.6 17.8146C15.6 19.1024 16.0333 20.1756 16.9 20.8195L23.8333 26.8292V37.5609H28.1667V24.2536L23.4 19.317ZM41.1667 22.5366C35.1 22.5366 30.3333 27.2585 30.3333 33.2683C30.3333 39.278 35.1 44 41.1667 44C47.2333 44 52 39.278 52 33.2683C52 27.2585 47.2333 22.5366 41.1667 22.5366ZM41.1667 40.7805C37.05 40.7805 33.5833 37.3463 33.5833 33.2683C33.5833 29.1902 37.05 25.7561 41.1667 25.7561C45.2833 25.7561 48.75 29.1902 48.75 33.2683C48.75 37.3463 45.2833 40.7805 41.1667 40.7805Z" fill="#848484"/>
</svg>
