<svg width="67" height="67" viewBox="0 0 67 67" fill="none" xmlns="http://www.w3.org/2000/svg">
<path d="M39.865 37.6927C38.1115 37.6927 36.672 36.2585 36.672 34.4998V32.5055C36.672 30.752 38.1062 29.3125 39.865 29.3125C41.6185 29.3125 43.058 30.7467 43.058 32.5055V34.4998C43.0527 36.2585 41.6185 37.6927 39.865 37.6927Z" fill="#655454"/>
<path opacity="0.2" d="M39.865 30.3646C41.048 30.3646 42.0111 31.3277 42.0111 32.5107V34.505C42.0111 35.688 41.048 36.6511 39.865 36.6511C38.682 36.6511 37.7189 35.688 37.7189 34.505V32.5107C37.7189 31.3277 38.682 30.3646 39.865 30.3646ZM39.865 29.3177C38.1115 29.3177 36.672 30.752 36.672 32.5107V34.505C36.672 36.2585 38.1062 37.698 39.865 37.698C41.6185 37.698 43.058 36.2638 43.058 34.505V32.5107C43.0527 30.752 41.6185 29.3177 39.865 29.3177Z" fill="black"/>
<path d="M64.9063 47.1355V57.9288C64.9063 59.4102 64.3409 60.6821 62.8125 60.6821L6.8832 60.8339C5.05117 60.8339 1.96289 60.3052 2.09375 56.7302C2.09375 56.7302 2.22461 52.0454 2.30836 50.7734C2.54914 47.1094 4.77375 45.7589 10.2489 45.0627C17.2787 44.1677 17.9591 42.0634 20.0215 40.5245C24.6539 37.0698 27.2188 34.5469 39.4986 34.5469C48.5541 34.5469 55.4163 37.588 59.7766 42.8643C59.9755 43.1051 61.3207 43.7855 63.4668 44.6178C64.2363 44.9162 64.9063 45.4972 64.9063 47.1355Z" fill="#170000"/>
<path d="M0 53.3854H5.07734C7.50086 53.3854 8.11852 52.6997 8.61578 51.4539C8.61578 51.4539 9.80922 49.2031 6.79945 49.2031H2.25078C2.08852 49.2031 1.92102 49.2188 1.76398 49.245C0.910781 50.2605 0.157031 51.5743 0 53.3854Z" fill="white"/>
<path d="M64.3305 52.0611H63.6657C63.2365 52.0611 63.0219 51.7837 62.8858 51.0509L62.5037 47.6642C62.3676 46.654 62.8544 46.654 63.2836 46.654H64.3305C65.0633 46.654 65.1104 47.1094 65.1104 47.6642V51.0509C65.1104 51.6109 65.147 52.0611 64.3305 52.0611Z" fill="#E53935"/>
<path d="M38.2371 37.609C30.3594 37.5985 22.4398 41.5976 20.2309 45.6804C19.9534 46.1986 20.3774 46.7953 21.016 46.7953H38.368C38.8443 46.7953 39.2316 46.4498 39.2316 46.0206V38.3784C39.2316 37.9021 38.7658 37.609 38.2371 37.609Z" fill="#606060"/>
<path d="M42.8434 37.609C50.0249 37.609 54.092 41.5976 56.102 45.6804C56.3585 46.1986 55.9712 46.7953 55.3902 46.7953H42.7334C42.299 46.7953 41.943 46.4498 41.943 46.0206V39.9121C41.943 38.2737 42.0268 37.609 42.8434 37.609Z" fill="#606060"/>
<path opacity="0.2" d="M39.5038 36.1172C47.7899 36.1172 54.3852 38.7972 58.5727 43.8641C58.7506 44.0787 59.2217 44.644 62.9015 46.0782C63.137 46.1724 63.3412 46.2509 63.3412 47.1355V57.9288C63.3412 59.1118 62.9852 59.1118 62.8125 59.1118L6.88844 59.2636C6.15562 59.2636 4.83133 59.1589 4.15609 58.4627C3.80016 58.0911 3.63789 57.5467 3.6693 56.772C3.6693 56.7249 3.80016 52.103 3.88391 50.8781C4.04094 48.4912 5.025 47.3083 10.4583 46.6173C16.5406 45.8427 18.4198 44.0891 19.9325 42.6811C20.2832 42.3566 20.613 42.0477 20.9689 41.7808C21.2463 41.5714 21.5185 41.3673 21.7855 41.1684C25.8107 38.1272 28.4802 36.1172 39.5038 36.1172ZM39.5038 34.5469C27.2188 34.5469 24.6539 37.0698 20.0215 40.5245C17.9591 42.0634 17.2839 44.1677 10.2489 45.0627C4.77898 45.7589 2.55437 47.1094 2.31359 50.7734C2.22984 52.0454 2.09375 56.7302 2.09375 56.7302C1.96289 60.3052 5.05117 60.8339 6.8832 60.8339L62.8125 60.6821C64.3409 60.6821 64.9063 59.4154 64.9063 57.9288V47.1355C64.9063 45.4972 64.2363 44.9162 63.4668 44.6178C61.3259 43.7855 59.9755 43.1051 59.7766 42.8643C55.4216 37.588 48.5593 34.5469 39.5038 34.5469Z" fill="url(#paint0_linear)"/>
<path d="M26.4755 49.334H29.637V52.4955H26.4755V49.334Z" fill="white"/>
<path d="M32.7986 49.334H35.9601V52.4955H32.7986V49.334Z" fill="white"/>
<path d="M39.1217 49.334H42.2833V52.4955H39.1217V49.334Z" fill="white"/>
<path d="M23.3191 52.4955H26.4807V55.6571H23.3191V52.4955Z" fill="white"/>
<path d="M29.637 52.4955H32.7986V55.6571H29.637V52.4955Z" fill="white"/>
<path d="M35.9602 52.4955H39.1217V55.6571H35.9602V52.4955Z" fill="white"/>
<path d="M42.2833 52.4955H45.4448V55.6571H42.2833V52.4955Z" fill="white"/>
<path opacity="0.2" d="M38.1848 38.6559V45.7484H21.4086C22.5026 44.0734 24.7062 42.3827 27.5433 41.0637C30.8619 39.5143 34.6411 38.6611 38.1848 38.6559ZM38.2214 37.609C30.3489 37.609 22.4398 41.6028 20.2309 45.6804C19.9534 46.1986 20.3774 46.7953 21.016 46.7953H38.368C38.8443 46.7953 39.2316 46.4498 39.2316 46.0206V38.3784C39.2316 37.9073 38.7658 37.609 38.2423 37.609H38.2214Z" fill="#0F0D0D"/>
<path opacity="0.2" d="M43.0423 38.6559C50.072 38.7344 53.4796 42.9533 54.9609 45.7484H42.9899V39.9121C42.9899 39.6661 42.9899 39.0118 43.0423 38.6559ZM42.8434 37.609C42.0268 37.609 41.943 38.279 41.943 39.9121V46.0206C41.943 46.4498 42.2938 46.7953 42.7334 46.7953H55.3902C55.9712 46.7953 56.3585 46.1934 56.102 45.6804C54.092 41.5976 50.0249 37.609 42.8434 37.609Z" fill="#424242"/>
<path d="M16.6087 64.9167C19.4995 64.9167 21.843 62.5732 21.843 59.6823C21.843 56.7915 19.4995 54.448 16.6087 54.448C13.7178 54.448 11.3743 56.7915 11.3743 59.6823C11.3743 62.5732 13.7178 64.9167 16.6087 64.9167Z" fill="#4E342E"/>
<path opacity="0.2" d="M16.6087 54.9714C19.2049 54.9714 21.3196 57.0861 21.3196 59.6823C21.3196 62.2786 19.2049 64.3933 16.6087 64.3933C14.0124 64.3933 11.8977 62.2786 11.8977 59.6823C11.8977 57.0861 14.0124 54.9714 16.6087 54.9714ZM16.6087 54.448C13.7193 54.448 11.3743 56.793 11.3743 59.6823C11.3743 62.5717 13.7193 64.9167 16.6087 64.9167C19.498 64.9167 21.843 62.5717 21.843 59.6823C21.843 56.793 19.5033 54.448 16.6087 54.448Z" fill="#EEEEEE"/>
<path d="M16.6087 62.6398C18.242 62.6398 19.5661 61.3157 19.5661 59.6823C19.5661 58.049 18.242 56.7249 16.6087 56.7249C14.9753 56.7249 13.6513 58.049 13.6513 59.6823C13.6513 61.3157 14.9753 62.6398 16.6087 62.6398Z" fill="#BDBDBD"/>
<path d="M53.8355 64.9167C56.7264 64.9167 59.0699 62.5732 59.0699 59.6823C59.0699 56.7915 56.7264 54.448 53.8355 54.448C50.9447 54.448 48.6012 56.7915 48.6012 59.6823C48.6012 62.5732 50.9447 64.9167 53.8355 64.9167Z" fill="#4E342E"/>
<path opacity="0.2" d="M53.8355 54.9714C56.4318 54.9714 58.5465 57.0861 58.5465 59.6823C58.5465 62.2786 56.4318 64.3933 53.8355 64.3933C51.2393 64.3933 49.1246 62.2786 49.1246 59.6823C49.1246 57.0861 51.2393 54.9714 53.8355 54.9714ZM53.8355 54.448C50.9462 54.448 48.6012 56.793 48.6012 59.6823C48.6012 62.5717 50.9462 64.9167 53.8355 64.9167C56.7249 64.9167 59.0699 62.5717 59.0699 59.6823C59.0699 56.793 56.7302 54.448 53.8355 54.448Z" fill="#EEEEEE"/>
<path d="M53.8356 62.6398C55.4689 62.6398 56.793 61.3157 56.793 59.6823C56.793 58.049 55.4689 56.7249 53.8356 56.7249C52.2022 56.7249 50.8781 58.049 50.8781 59.6823C50.8781 61.3157 52.2022 62.6398 53.8356 62.6398Z" fill="#BDBDBD"/>
<defs>
<linearGradient id="paint0_linear" x1="2.08972" y1="47.6904" x2="64.9063" y2="47.6904" gradientUnits="userSpaceOnUse">
<stop stop-color="#ED213A"/>
<stop offset="0.0001" stop-color="#38090F"/>
<stop offset="1" stop-color="#320B06"/>
</linearGradient>
</defs>
</svg>
