<svg width="74" height="73" viewBox="0 0 74 73" fill="none" xmlns="http://www.w3.org/2000/svg">
<path d="M57.7201 55.48H16.2801C13.7641 55.48 11.8401 53.582 11.8401 51.1V21.9C11.8401 19.418 13.7641 17.52 16.2801 17.52H57.7201C60.2361 17.52 62.1601 19.418 62.1601 21.9V51.1C62.1601 53.582 60.2361 55.48 57.7201 55.48ZM16.2801 20.44C15.3921 20.44 14.8001 21.024 14.8001 21.9V51.1C14.8001 51.976 15.3921 52.56 16.2801 52.56H57.7201C58.6081 52.56 59.2001 51.976 59.2001 51.1V21.9C59.2001 21.024 58.6081 20.44 57.7201 20.44H16.2801Z" fill="#0047FF"/>
<path d="M13.3201 23.36H60.6801V32.12H13.3201V23.36Z" fill="#0047FF"/>
<path d="M17.76 37.96H19.24V40.88H17.76V37.96Z" fill="#0047FF"/>
<path d="M20.72 37.96H22.2V40.88H20.72V37.96Z" fill="#0047FF"/>
<path d="M23.6799 37.96H25.1599V40.88H23.6799V37.96Z" fill="#0047FF"/>
<path d="M28.1201 37.96H29.6001V40.88H28.1201V37.96Z" fill="#0047FF"/>
<path d="M31.0801 37.96H32.5601V40.88H31.0801V37.96Z" fill="#0047FF"/>
<path d="M34.04 37.96H35.52V40.88H34.04V37.96Z" fill="#0047FF"/>
<path d="M38.48 37.96H39.96V40.88H38.48V37.96Z" fill="#0047FF"/>
<path d="M41.4399 37.96H42.9199V40.88H41.4399V37.96Z" fill="#0047FF"/>
<path d="M44.3999 37.96H45.8799V40.88H44.3999V37.96Z" fill="#0047FF"/>
<path d="M48.8401 37.96H50.3201V40.88H48.8401V37.96Z" fill="#0047FF"/>
<path d="M51.8 37.96H53.2801V40.88H51.8V37.96Z" fill="#0047FF"/>
<path d="M54.76 37.96H56.24V40.88H54.76V37.96Z" fill="#0047FF"/>
</svg>
