<svg width="33" height="27" viewBox="0 0 33 27" fill="none" xmlns="http://www.w3.org/2000/svg">
<path d="M33 2.01583C28.335 6.15983 22.7371 13.1598 16.2061 23.0158L12.9873 28.0278C10.3003 24.6678 5.97116 20.0012 0 14.0278L2.99491 11.0318L11 18.0318C13.799 15.2318 16.402 12.6978 18.8092 10.4298C21.2163 8.16183 23.1336 6.41183 24.5611 5.17983C25.9886 3.94783 27.2154 2.91183 28.2417 2.07183C29.268 1.23183 29.9864 0.681165 30.3969 0.419832L30.9847 0.027832C31.0594 0.027832 31.162 0.0464987 31.2926 0.083832C31.4232 0.121165 31.6658 0.303165 32.0204 0.629832C32.3749 0.956499 32.7014 1.4185 33 2.01583Z" fill="url(#paint0_linear_203_4501)"/>
<defs>
<linearGradient id="paint0_linear_203_4501" x1="0" y1="14.0278" x2="33" y2="14.0278" gradientUnits="userSpaceOnUse">
<stop stop-color="#FF8008"/>
<stop offset="1" stop-color="#FFC837"/>
</linearGradient>
</defs>
</svg>
