<svg width="27" height="27" viewBox="0 0 27 27" fill="none" xmlns="http://www.w3.org/2000/svg">
<path d="M13.4999 0.583328C11.8037 0.583328 10.124 0.917428 8.55692 1.56655C6.9898 2.21567 5.56588 3.16711 4.36646 4.36653C1.94411 6.78888 0.583252 10.0743 0.583252 13.5C0.583252 16.9257 1.94411 20.2111 4.36646 22.6335C5.56588 23.8329 6.9898 24.7843 8.55692 25.4334C10.124 26.0826 11.8037 26.4167 13.4999 26.4167C16.9256 26.4167 20.211 25.0558 22.6334 22.6335C25.0557 20.2111 26.4166 16.9257 26.4166 13.5C26.4166 11.8038 26.0825 10.1241 25.4334 8.557C24.7842 6.98988 23.8328 5.56596 22.6334 4.36653C21.434 3.16711 20.01 2.21567 18.4429 1.56655C16.8758 0.917428 15.1962 0.583328 13.4999 0.583328ZM18.9249 18.925L12.2083 14.7917V7.04166H14.1458V13.7583L19.9583 17.2458L18.9249 18.925Z" fill="url(#paint0_linear_111_721)"/>
<defs>
<linearGradient id="paint0_linear_111_721" x1="0.583252" y1="13.5" x2="26.4166" y2="13.5" gradientUnits="userSpaceOnUse">
<stop stop-color="#FF8008"/>
<stop offset="1" stop-color="#FFC837"/>
</linearGradient>
</defs>
</svg>
