<svg width="32" height="32" viewBox="0 0 32 32" fill="none" xmlns="http://www.w3.org/2000/svg">
<path d="M16 0.640015C7.51519 0.640015 0.63839 7.51682 0.63839 16C0.63818 18.0174 1.03538 20.015 1.80729 21.8789C2.57921 23.7427 3.71073 25.4363 5.13723 26.8628C6.56373 28.2893 8.25726 29.4208 10.1211 30.1927C11.985 30.9646 13.9826 31.3618 16 31.3616C24.4816 31.3616 31.36 24.4848 31.36 16C31.36 7.51682 24.4816 0.640015 16 0.640015ZM15.9984 28.16C14.4015 28.16 12.8203 27.8455 11.345 27.2344C9.86964 26.6233 8.52913 25.7276 7.39997 24.5984C6.27081 23.4693 5.37511 22.1288 4.76401 20.6534C4.15292 19.1781 3.83839 17.5969 3.83839 16C3.83839 14.4031 4.15292 12.8219 4.76401 11.3466C5.37511 9.87127 6.27081 8.53076 7.39997 7.4016C8.52913 6.27244 9.86964 5.37674 11.345 4.76564C12.8203 4.15454 14.4015 3.84001 15.9984 3.84001C17.5953 3.84001 19.1765 4.15454 20.6518 4.76564C22.1271 5.37674 23.4676 6.27244 24.5968 7.4016C25.726 8.53076 26.6217 9.87127 27.2328 11.3466C27.8439 12.8219 28.1584 14.4031 28.1584 16C28.1584 17.5969 27.8439 19.1781 27.2328 20.6534C26.6217 22.1288 25.726 23.4693 24.5968 24.5984C23.4676 25.7276 22.1271 26.6233 20.6518 27.2344C19.1765 27.8455 17.5953 28.16 15.9984 28.16ZM17.6 14.928V6.40001H14.4V16.392L8.72639 19.6688L10.3264 22.44L16.9104 18.6368C17.1112 18.5055 17.2783 18.3287 17.3981 18.1208C17.5179 17.9129 17.5871 17.6796 17.6 17.44V17.1712L24.384 10.5056C24.0706 10.0714 23.7245 9.66164 23.3488 9.28002L17.6 14.928Z" fill="#2C4D60"/>
</svg>
