<svg width="18" height="18" viewBox="0 0 18 18" fill="none" xmlns="http://www.w3.org/2000/svg">
<path d="M5.39961 10.2001C5.71787 10.2001 6.02309 10.0737 6.24814 9.84863C6.47318 9.62358 6.59961 9.31836 6.59961 9.0001C6.59961 8.68184 6.47318 8.37661 6.24814 8.15157C6.02309 7.92653 5.71787 7.8001 5.39961 7.8001C5.08135 7.8001 4.77613 7.92653 4.55108 8.15157C4.32604 8.37661 4.19961 8.68184 4.19961 9.0001C4.19961 9.31836 4.32604 9.62358 4.55108 9.84863C4.77613 10.0737 5.08135 10.2001 5.39961 10.2001ZM6.59961 12.6001C6.59961 12.9184 6.47318 13.2236 6.24814 13.4486C6.02309 13.6737 5.71787 13.8001 5.39961 13.8001C5.08135 13.8001 4.77613 13.6737 4.55108 13.4486C4.32604 13.2236 4.19961 12.9184 4.19961 12.6001C4.19961 12.2818 4.32604 11.9766 4.55108 11.7516C4.77613 11.5265 5.08135 11.4001 5.39961 11.4001C5.71787 11.4001 6.02309 11.5265 6.24814 11.7516C6.47318 11.9766 6.59961 12.2818 6.59961 12.6001ZM8.99961 10.2001C9.31787 10.2001 9.62309 10.0737 9.84814 9.84863C10.0732 9.62358 10.1996 9.31836 10.1996 9.0001C10.1996 8.68184 10.0732 8.37661 9.84814 8.15157C9.62309 7.92653 9.31787 7.8001 8.99961 7.8001C8.68135 7.8001 8.37613 7.92653 8.15108 8.15157C7.92604 8.37661 7.79961 8.68184 7.79961 9.0001C7.79961 9.31836 7.92604 9.62358 8.15108 9.84863C8.37613 10.0737 8.68135 10.2001 8.99961 10.2001ZM10.1996 12.6001C10.1996 12.9184 10.0732 13.2236 9.84814 13.4486C9.62309 13.6737 9.31787 13.8001 8.99961 13.8001C8.68135 13.8001 8.37613 13.6737 8.15108 13.4486C7.92604 13.2236 7.79961 12.9184 7.79961 12.6001C7.79961 12.2818 7.92604 11.9766 8.15108 11.7516C8.37613 11.5265 8.68135 11.4001 8.99961 11.4001C9.31787 11.4001 9.62309 11.5265 9.84814 11.7516C10.0732 11.9766 10.1996 12.2818 10.1996 12.6001ZM12.5996 10.2001C12.9179 10.2001 13.2231 10.0737 13.4481 9.84863C13.6732 9.62358 13.7996 9.31836 13.7996 9.0001C13.7996 8.68184 13.6732 8.37661 13.4481 8.15157C13.2231 7.92653 12.9179 7.8001 12.5996 7.8001C12.2814 7.8001 11.9761 7.92653 11.7511 8.15157C11.526 8.37661 11.3996 8.68184 11.3996 9.0001C11.3996 9.31836 11.526 9.62358 11.7511 9.84863C11.9761 10.0737 12.2814 10.2001 12.5996 10.2001ZM17.3996 3.6001C17.3996 2.80445 17.0835 2.04139 16.5209 1.47878C15.9583 0.916168 15.1953 0.600098 14.3996 0.600098H3.59961C2.80396 0.600098 2.0409 0.916168 1.47829 1.47878C0.91568 2.04139 0.599609 2.80445 0.599609 3.6001V14.4001C0.599609 15.1957 0.91568 15.9588 1.47829 16.5214C2.0409 17.084 2.80396 17.4001 3.59961 17.4001H14.3996C15.1953 17.4001 15.9583 17.084 16.5209 16.5214C17.0835 15.9588 17.3996 15.1957 17.3996 14.4001V3.6001ZM1.79961 5.4001H16.1996V14.4001C16.1996 14.8775 16.01 15.3353 15.6724 15.6729C15.3348 16.0105 14.877 16.2001 14.3996 16.2001H3.59961C3.12222 16.2001 2.66438 16.0105 2.32682 15.6729C1.98925 15.3353 1.79961 14.8775 1.79961 14.4001V5.4001ZM3.59961 1.8001H14.3996C14.877 1.8001 15.3348 1.98974 15.6724 2.32731C16.01 2.66487 16.1996 3.12271 16.1996 3.6001V4.2001H1.79961V3.6001C1.79961 3.12271 1.98925 2.66487 2.32682 2.32731C2.66438 1.98974 3.12222 1.8001 3.59961 1.8001Z" fill="url(#paint0_linear_272_1988)"/>
<defs>
<linearGradient id="paint0_linear_272_1988" x1="0.599609" y1="9.0001" x2="17.3996" y2="9.0001" gradientUnits="userSpaceOnUse">
<stop stop-color="#FF8008"/>
<stop offset="1" stop-color="#FFC837"/>
</linearGradient>
</defs>
</svg>
