<svg width="39" height="38" viewBox="0 0 39 38" fill="none" xmlns="http://www.w3.org/2000/svg">
<path d="M36.3892 0H19.5003C18.3392 0 17.3892 0.95 17.3892 2.11111V5.51L17.4103 5.53111L27.9658 15.0311C29.2958 16.2133 30.0558 17.9444 30.0558 19.7389V21.1111H34.278V25.3333H30.0558V29.5556H34.278V33.7778H30.0558V38H36.3892C37.5503 38 38.5003 37.05 38.5003 35.8889V2.11111C38.5003 0.95 37.5503 0 36.3892 0ZM25.8336 8.44444H21.6114V4.22222H25.8336V8.44444ZM34.278 16.8889H30.0558V12.6667H34.278V16.8889ZM34.278 8.44444H30.0558V4.22222H34.278V8.44444Z" fill="#9B9B9C"/>
<path d="M25.8335 35.889V19.739C25.8328 19.4444 25.7704 19.1532 25.6504 18.8841C25.5305 18.6151 25.3555 18.3741 25.1368 18.1768L14.5812 8.67676C14.1986 8.31756 13.6916 8.12079 13.1668 8.12787C12.6601 8.12787 12.1535 8.31787 11.7524 8.67676L1.1968 18.1768C0.974921 18.3715 0.797787 18.612 0.677539 18.8816C0.55729 19.1513 0.496772 19.4438 0.500133 19.739V35.889C0.500133 37.0501 1.45013 38.0001 2.61124 38.0001H6.83347C7.99458 38.0001 8.94458 37.0501 8.94458 35.889V27.4445H17.389V35.889C17.389 37.0501 18.339 38.0001 19.5001 38.0001H23.7224C24.8835 38.0001 25.8335 37.0501 25.8335 35.889Z" fill="#9B9B9C"/>
</svg>
