<svg width="24" height="24" viewBox="0 0 24 24" fill="none" xmlns="http://www.w3.org/2000/svg">
<path d="M8 13H16M8 13V18C8 19.886 8 20.828 8.586 21.414C9.172 22 10.114 22 12 22C13.886 22 14.828 22 15.414 21.414C16 20.828 16 19.886 16 18V13M8 13C6.64789 12.6994 5.40617 12.0283 4.41392 11.0618C3.42168 10.0954 2.71811 8.87173 2.382 7.528L2 6M16 13C17.71 13 19.15 14.28 19.35 15.98L20 21.5" stroke="white" stroke-width="1.5" stroke-linecap="round"/>
<path d="M12 10C14.2091 10 16 8.20914 16 6C16 3.79086 14.2091 2 12 2C9.79086 2 8 3.79086 8 6C8 8.20914 9.79086 10 12 10Z" stroke="white" stroke-width="1.5"/>
</svg>
