<svg width="28" height="28" viewBox="0 0 28 28" fill="none" xmlns="http://www.w3.org/2000/svg">
<path d="M14 0.559998C6.5772 0.559998 0.559998 6.5772 0.559998 14C0.560089 15.765 0.907816 17.5126 1.58332 19.1432C2.25883 20.7738 3.24889 22.2554 4.49698 23.5033C5.74506 24.7513 7.22673 25.7412 8.85738 26.4165C10.488 27.0918 12.2357 27.4394 14.0007 27.4393C15.7657 27.4392 17.5133 27.0915 19.1439 26.416C20.7745 25.7405 22.2561 24.7504 23.504 23.5023C24.752 22.2542 25.7419 20.7726 26.4172 19.1419C27.0925 17.5113 27.4401 15.7636 27.44 13.9986C27.44 6.5772 21.4214 0.559998 14 0.559998ZM13.7886 21.8386H13.7172C12.6224 21.8064 11.8496 20.9986 11.8818 19.9192C11.9126 18.858 12.7036 18.0866 13.762 18.0866L13.8264 18.0894C14.952 18.1216 15.7164 18.921 15.6842 20.0312C15.652 21.0952 14.875 21.8386 13.7886 21.8386ZM18.396 12.6952C18.1384 13.0592 17.5728 13.5156 16.8588 14.0714L16.072 14.6132C15.6408 14.9492 15.3804 15.267 15.2838 15.5764C15.2054 15.82 15.169 15.8858 15.162 16.3828V16.5088H12.159L12.1674 16.254C12.2052 15.2124 12.2304 14.5964 12.663 14.0882C13.342 13.293 14.84 12.327 14.903 12.2864C15.1085 12.1363 15.2878 11.9532 15.4336 11.7446C15.7486 11.3092 15.8872 10.9676 15.8872 10.6344C15.8872 10.1668 15.75 9.7342 15.477 9.352C15.2138 8.9796 14.714 8.7948 13.9916 8.7948C13.2748 8.7948 12.7834 9.0216 12.4908 9.4892C12.1884 9.9666 12.0358 10.4692 12.0358 10.983V11.1118H8.9404L8.946 10.9774C9.0258 9.0832 9.7034 7.7182 10.955 6.9216C11.7432 6.4162 12.7246 6.16 13.8684 6.16C15.3636 6.16 16.6292 6.524 17.6232 7.2408C18.6326 7.9674 19.1436 9.0566 19.1436 10.4762C19.1422 11.27 18.8916 12.0162 18.396 12.6952Z" fill="#B44040"/>
</svg>
