<svg width="21" height="23" viewBox="0 0 21 23" fill="none" xmlns="http://www.w3.org/2000/svg">
<path d="M20.9918 0.990227C20.9918 0.986227 20.9931 0.982477 20.9931 0.978477C20.9931 0.797398 20.9212 0.623724 20.7932 0.495611C20.6653 0.367499 20.4917 0.295426 20.3106 0.295227H20.3101H7.88983V0.297977L0.00783014 8.18023H0.00708008V22.0215H0.00783014V22.0217C0.00809503 22.2029 0.0802154 22.3765 0.208361 22.5045C0.336506 22.6325 0.510205 22.7044 0.69133 22.7045H20.3111C20.4667 22.7042 20.6176 22.6508 20.7386 22.553C20.8597 22.4552 20.9438 22.319 20.9768 22.167H20.9918V22.033C20.9918 22.0292 20.9928 22.0257 20.9928 22.022C20.9928 22.0182 20.9918 22.0147 20.9918 22.011V0.990227ZM14.9098 2.78448H18.5026V8.93373L13.9743 4.40523L14.9098 2.78448ZM7.89258 8.86323V8.86298C8.0732 8.86232 8.24621 8.79013 8.37374 8.66223C8.50128 8.53432 8.57295 8.3611 8.57308 8.18048V2.78448H13.4701L6.67758 14.5495L2.49633 10.3682V8.86323H7.89258ZM2.49633 20.2155V12.1317L6.03208 15.6675L3.40658 20.2155H2.49633ZM4.84633 20.2155L13.3288 5.52323L18.5028 10.6972V20.2155H4.84633Z" fill="#9B7B7B"/>
<path d="M13.5075 10.394C11.8463 10.394 10.501 11.7407 10.501 13.4007C10.501 14.0655 10.7193 14.678 11.0845 15.1757L13.0243 18.5355C13.036 18.559 13.0485 18.582 13.0635 18.6032L13.0675 18.61L13.0685 18.6095C13.1165 18.6762 13.179 18.7311 13.2514 18.77C13.3237 18.8089 13.404 18.8307 13.4861 18.8339C13.5682 18.8371 13.6499 18.8215 13.7251 18.7883C13.8002 18.7552 13.8668 18.7053 13.9198 18.6425L13.9248 18.6452L13.9435 18.613C13.9727 18.5748 13.9968 18.533 14.0153 18.4887L15.9173 15.1942C16.3052 14.6767 16.5148 14.0473 16.5148 13.4005C16.514 11.7407 15.1688 10.394 13.5075 10.394ZM13.4778 14.925C12.6593 14.925 11.9963 14.2622 11.9963 13.4437C11.9962 13.1507 12.0831 12.8643 12.2458 12.6206C12.4086 12.3769 12.64 12.187 12.9107 12.0748C13.1814 11.9627 13.4793 11.9333 13.7667 11.9904C14.0541 12.0476 14.3181 12.1886 14.5253 12.3958C14.7325 12.603 14.8736 12.867 14.9308 13.1544C14.988 13.4418 14.9587 13.7396 14.8465 14.0104C14.7344 14.2811 14.5445 14.5125 14.3009 14.6753C14.0573 14.8381 13.7708 14.925 13.4778 14.925Z" fill="#9B7B7B"/>
</svg>
