<svg width="36" height="45" viewBox="0 0 36 45" fill="none" xmlns="http://www.w3.org/2000/svg">
<path d="M18 27C18.5128 27 18.9355 27.386 18.9933 27.8834L19 28V44C19 44.5523 18.5523 45 18 45C17.4872 45 17.0645 44.614 17.0067 44.1166L17 44V28C17 27.4477 17.4477 27 18 27Z" fill="black"/>
<g filter="url(#filter0_d_0_5)">
<circle cx="18" cy="16" r="12" fill="#FF4900"/>
</g>
<path fill-rule="evenodd" clip-rule="evenodd" d="M22 19.515C22 21.992 20.0437 24 17.6304 24C15.5155 24 13.7515 22.4578 13.3476 20.4093L11.1035 15.7981C10.8752 15.3292 11.0361 14.7589 11.4732 14.4878C11.9009 14.2226 12.457 14.363 12.716 14.8016L14.1158 17.1727H14.4524L14.4525 10.3088C14.4525 9.85842 14.8082 9.49333 15.247 9.49333C15.6857 9.49333 16.0414 9.85842 16.0414 10.3088L16.0406 15.4664H16.4385L16.4387 8.81545C16.4387 8.36509 16.7944 8 17.2332 8C17.6719 8 18.0276 8.36509 18.0276 8.81545L18.0276 15.4664H18.4247L18.4249 9.45545C18.4249 9.00509 18.7806 8.64 19.2193 8.64C19.6581 8.64 20.0138 9.00509 20.0138 9.45545L20.0138 15.4664H20.4108L20.4111 12.0155C20.4111 11.5651 20.7667 11.2 21.2055 11.2C21.6443 11.2 22 11.5651 22 12.0155V19.515Z" fill="white"/>
<defs>
<filter id="filter0_d_0_5" x="0" y="0" width="36" height="36" filterUnits="userSpaceOnUse" color-interpolation-filters="sRGB">
<feFlood flood-opacity="0" result="BackgroundImageFix"/>
<feColorMatrix in="SourceAlpha" type="matrix" values="0 0 0 0 0 0 0 0 0 0 0 0 0 0 0 0 0 0 127 0" result="hardAlpha"/>
<feOffset dy="2"/>
<feGaussianBlur stdDeviation="3"/>
<feColorMatrix type="matrix" values="0 0 0 0 0 0 0 0 0 0 0 0 0 0 0 0 0 0 0.235836 0"/>
<feBlend mode="normal" in2="BackgroundImageFix" result="effect1_dropShadow_0_5"/>
<feBlend mode="normal" in="SourceGraphic" in2="effect1_dropShadow_0_5" result="shape"/>
</filter>
</defs>
</svg>
