<svg width="12" height="12" viewBox="0 0 12 12" fill="none" xmlns="http://www.w3.org/2000/svg">
<path fill-rule="evenodd" clip-rule="evenodd" d="M9 6C9.27614 6 9.5 6.22386 9.5 6.5V9.5C9.5 9.77614 9.27614 10 9 10C8.72386 10 8.5 9.77614 8.5 9.5V6.5C8.5 6.22386 8.72386 6 9 6Z" fill="black"/>
<path fill-rule="evenodd" clip-rule="evenodd" d="M6 2C6.27614 2 6.5 2.22386 6.5 2.5V9.5C6.5 9.77614 6.27614 10 6 10C5.72386 10 5.5 9.77614 5.5 9.5V2.5C5.5 2.22386 5.72386 2 6 2Z" fill="black"/>
<path fill-rule="evenodd" clip-rule="evenodd" d="M3 4C3.27614 4 3.5 4.22386 3.5 4.5V9.5C3.5 9.77614 3.27614 10 3 10C2.72386 10 2.5 9.77614 2.5 9.5V4.5C2.5 4.22386 2.72386 4 3 4Z" fill="black"/>
</svg>
