<?xml version="1.0" encoding="utf-8"?>
<!-- Generator: Adobe Illustrator 23.0.0, SVG Export Plug-In . SVG Version: 6.00 Build 0)  -->
<svg version="1.1" id="Layer_1" xmlns="http://www.w3.org/2000/svg" xmlns:xlink="http://www.w3.org/1999/xlink" x="0px" y="0px"
	 viewBox="0 0 512 512" style="enable-background:new 0 0 512 512;" xml:space="preserve">
<style type="text/css">
	.st0{fill:#E21B1B;}
	.st1{fill:#F91E1E;}
	.st2{fill:#FFFFFF;}
</style>
<polygon class="st0" points="256,1 0,511 256,354.1 512,511 "/>
<polygon class="st1" points="256,1 0,511 256,354.1 256,203 "/>
<path class="st2" d="M332.6,229.6C332.6,229.6,332.6,229.6,332.6,229.6l-66.1-66.1c-2.8-2.8-6.6-4.4-10.5-4.4c-4,0-7.7,1.6-10.5,4.4
	l-66.1,66c0,0,0,0-0.1,0.1c-5.8,5.8-5.8,15.3,0,21.1c2.7,2.7,6.2,4.2,9.9,4.3c0.2,0,0.3,0,0.5,0h2.6v48.6c0,9.6,7.8,17.5,17.5,17.5
	h25.9c2.6,0,4.7-2.1,4.7-4.7v-38.1c0-4.4,3.6-8,8-8h15.3c4.4,0,8,3.6,8,8v38.1c0,2.6,2.1,4.7,4.7,4.7h25.9c9.6,0,17.5-7.8,17.5-17.5
	V255h2.4c4,0,7.7-1.6,10.5-4.4C338.4,244.9,338.4,235.4,332.6,229.6z"/>
<path d="M189.7,245.5"/>
</svg>
