<svg width="32" height="31" viewBox="0 0 32 31" fill="none" xmlns="http://www.w3.org/2000/svg">
<path d="M3.75 24.125H28.25C29.9396 24.125 31.25 25.393 31.25 26.875C31.25 28.357 29.9396 29.625 28.25 29.625H3.75C2.06035 29.625 0.75 28.357 0.75 26.875C0.75 25.393 2.06035 24.125 3.75 24.125ZM3.75 12.75H28.25C29.9396 12.75 31.25 14.018 31.25 15.5C31.25 16.982 29.9396 18.25 28.25 18.25H3.75C2.06035 18.25 0.75 16.982 0.75 15.5C0.75 14.018 2.06035 12.75 3.75 12.75ZM3.75 1.375H28.25C29.9396 1.375 31.25 2.64302 31.25 4.125C31.25 5.60698 29.9396 6.875 28.25 6.875H3.75C2.06035 6.875 0.75 5.60698 0.75 4.125C0.75 2.64302 2.06035 1.375 3.75 1.375Z" fill="white" stroke="#9B0000"/>
</svg>
