<svg width="51" height="51" viewBox="0 0 51 51" fill="none" xmlns="http://www.w3.org/2000/svg">
<g clip-path="url(#clip0_111_715)">
<path d="M14.3438 20.7188C12.5807 20.7188 11.1563 22.1432 11.1563 23.9062C11.1563 25.6693 12.5807 27.0938 14.3438 27.0938C16.1069 27.0938 17.5313 25.6693 17.5313 23.9062C17.5313 22.1432 16.1069 20.7188 14.3438 20.7188ZM25.5 20.7188C23.7369 20.7188 22.3125 22.1432 22.3125 23.9062C22.3125 25.6693 23.7369 27.0938 25.5 27.0938C27.2631 27.0938 28.6875 25.6693 28.6875 23.9062C28.6875 22.1432 27.2631 20.7188 25.5 20.7188ZM36.6563 20.7188C34.8932 20.7188 33.4688 22.1432 33.4688 23.9062C33.4688 25.6693 34.8932 27.0938 36.6563 27.0938C38.4194 27.0938 39.8438 25.6693 39.8438 23.9062C39.8438 22.1432 38.4194 20.7188 36.6563 20.7188ZM25.5 3.1875C11.4153 3.1875 1.90991e-05 12.4611 1.90991e-05 23.9062C1.90991e-05 28.6477 1.98225 32.9906 5.26936 36.4869C3.78518 40.4115 0.697285 43.7385 0.64748 43.7783C-0.00994184 44.4756 -0.189239 45.4916 0.189277 46.3682C0.567793 47.2447 1.43439 47.8125 2.39064 47.8125C8.51662 47.8125 13.3477 45.2525 16.2463 43.2006C19.125 44.107 22.2328 44.625 25.5 44.625C39.5848 44.625 51 35.3514 51 23.9062C51 12.4611 39.5848 3.1875 25.5 3.1875ZM25.5 39.8438C22.8405 39.8438 20.2108 39.4354 17.6906 38.6385L15.4295 37.9213L13.4871 39.2959C12.0627 40.302 10.1104 41.4275 7.75959 42.1846C8.48674 40.9793 9.19397 39.6246 9.74182 38.1803L10.7977 35.3813L8.74572 33.2098C6.94279 31.2873 4.78127 28.1098 4.78127 23.9062C4.78127 15.1207 14.0748 7.96875 25.5 7.96875C36.9252 7.96875 46.2188 15.1207 46.2188 23.9062C46.2188 32.6918 36.9252 39.8438 25.5 39.8438Z" fill="url(#paint0_linear_111_715)"/>
</g>
<defs>
<linearGradient id="paint0_linear_111_715" x1="-0.0065918" y1="25.5" x2="51" y2="25.5" gradientUnits="userSpaceOnUse">
<stop stop-color="#FF8008"/>
<stop offset="1" stop-color="#FFC837"/>
</linearGradient>
<clipPath id="clip0_111_715">
<rect width="51" height="51" fill="white"/>
</clipPath>
</defs>
</svg>
