<?xml version="1.0" encoding="utf-8"?>
<!-- Generator: Adobe Illustrator 23.0.0, SVG Export Plug-In . SVG Version: 6.00 Build 0)  -->
<svg version="1.1" id="Layer_1" xmlns="http://www.w3.org/2000/svg" xmlns:xlink="http://www.w3.org/1999/xlink" x="0px" y="0px"
	 viewBox="0 0 51 53" style="enable-background:new 0 0 51 53;" xml:space="preserve">
<style type="text/css">
	.st0{fill:#848484;}
</style>
<path class="st0" d="M40.6,32.7h2.1c1.5,0.2-1.4,1.7-1.4,1.7s-1.4-1.1-1.4-1.4C39.9,32.7,40.6,32.7,40.6,32.7z"/>
<path class="st0" d="M29.7,43c0.4,0.2,0.8,0.8,0.9,1.2l0.2,0.8c0.1,0.4,0,0.9-0.2,1.1c-0.2,0.2-0.5,0-0.6-0.4l-0.7-2.3
	C29.1,42.9,29.4,42.8,29.7,43z"/>
<path class="st0" d="M19.5,42.1c0.4,0.2,0.8,0.8,0.9,1.2l0.2,0.8c0.1,0.4,0,0.9-0.2,1.1c-0.2,0.2-0.5,0-0.6-0.4L19,42.5
	C18.9,42.1,19.1,41.9,19.5,42.1z"/>
<path class="st0" d="M7.9,36.4c1.1,0,2.2,0.2,3.3,0.7c1,0.5,1.9,1.2,2.7,2.1l0.5-0.3c-0.2-0.2-0.4-0.3-0.6-0.5
	c-0.3-0.3-0.5-0.6-0.5-0.9L2.9,32.3c0-0.7,0.1-1.4,0.5-1.9c-1.5-1.9-1.5-4.2-1.5-4.3v-1.3h1.3c1.9,0,3.4,0,5.2,0.6
	c1.3,0.4,2.1,0.8,2.8,1.2c-0.2-0.9-0.1-1.9,0.7-3c0,0,4.8-5.2,10.4-6.8c-1.7-1.4-2.2-2.9-2.2-6C20,4.8,24.7,0,30.5,0
	C36.3,0,41,4.8,41,10.7c0,0.4,0,0.8-0.1,1.2l0,0c1,0.4-0.9,5.8-1.9,5.8c-1.5,3.8-3.8,4.6-5.6,4.6c-0.9,0-1.9-0.2-2.8-0.7l-0.3,3.5
	l1.7,0.9l0.1-0.1l1.2-1.1l0.4-0.3h0.5c3.8,0,7.4,1.9,9.6,5.1L44,30c1,1.5,1.7,2.6,1.5,3.6c-0.1,0.5-0.3,0.8-0.7,1.1
	c-0.3,0.2-0.8,0.6-1.4,0.9c1.8,0.1,3.5,0.8,4.9,2l-1.2,0.1c2.1,1.4,3.6,3.9,3.6,6.7c0,4.5-3.5,8.1-7.9,8.1c-3.4,0-6.4-2.2-7.5-5.4
	l0,0.1c0,0.3-0.1,0.6-0.2,0.9c-0.1,0.3-0.3,0.6-0.5,0.8c-0.2,0.2-0.5,0.4-0.8,0.5c-0.3,0.1-0.6,0.2-0.9,0.2c-0.1,0-0.1,0-0.2,0l0,0
	l0,0l-15.5-2.2L16,47.3l0.1-1.2c0-0.1,0-0.2,0-0.4c0-0.2,0-0.4,0-0.6c0.1-0.6,0.1-1.1,0.1-1.7l-0.4,0.2c0,0.3,0.1,0.6,0.1,0.9
	c0,4.5-3.5,8.1-7.9,8.1c-4.4,0-7.9-3.6-7.9-8.1C0,40,3.5,36.4,7.9,36.4z M14.5,32.2c-3.9-2-1-3.9-6.5-5.6c-1.7-0.5-3-0.5-4.8-0.5
	c0,0,0,3.3,2.7,4.8c5.5,3.1,9.9,3.4,9.9,3.4S15.9,32.9,14.5,32.2z M20.1,37.1c-0.5,0.4-0.8,1-1,1.7c1,0.2,1.6,0.9,1.9,1.4
	c0,0,0,0,0,0L20.1,37.1z M30.9,19.9c0.9,0.5,1.7,0.7,2.5,0.7c2,0,3.3-1.7,4-3.5c-3.1-1.4-7-3.6-8.5-5.2c-0.2,0-0.3,0.1-0.5,0.1
	c-0.9,0-1.7-0.8-1.7-1.7c0-0.9,0.8-1.7,1.7-1.7c0.8,0,1.4,0.5,1.6,1.3c2.3-0.1,6.2,0.6,9.2,1.5c0-0.2,0-0.4,0-0.6c0-5-4-9-8.8-9
	c-4.9,0-8.8,4-8.8,9c0,4.1,0.7,4.5,5.9,7.3C28.7,18.6,29.8,19.3,30.9,19.9z M31.8,30.8c-0.1-0.2-0.1-0.4-0.1-0.6l-5.1-2.4
	c-0.3-0.2-0.5-0.4-0.6-0.7c-0.1-0.3-0.2-0.6-0.1-0.9h0l0.1-1.5l-3.5,3.2c0.1,0,0.2,0,0.3,0c0.2,0,0.4,0,0.6,0.1
	c0.9,0.3,2.1,0.7,3.3,1.2c0.7,0.3,1.3,0.5,1.8,0.7c1,0.4,1.7,1.2,1.7,2.1v0.2c0.8-0.2,1.5-0.3,2.3-0.5
	C32.1,31.4,31.9,31.1,31.8,30.8z M23.6,29.3l0.9,3.6l1.5,0.4c0.9-0.3,1.9-0.6,2.8-0.9v-0.5c0-0.4-0.4-0.8-0.8-0.9
	C26.9,30.6,25,29.8,23.6,29.3z M35.7,27.1l-0.6-0.3c-0.1-0.1-0.2-0.1-0.4-0.1c-0.3,0-0.7,0.2-0.8,0.5l-0.5,1.3
	c-0.8,1.9-0.8,1.9,1.7,3c0.3,0.1,0.6,0.2,0.9,0.2c1,0,1.4-0.9,1.5-1.1c0.7-1.5-0.3-2.3-1.1-2.7C36.3,27.5,36.1,27.2,35.7,27.1z
	 M38.8,44.5c0,0.2,0,0.4,0.1,0.5l-1.6-0.1c0.1,0.7,0.2,1.4,0.5,2l1.3-0.9c0.1,0.3,0.3,0.6,0.5,0.9l-1.5,0.7c0.4,0.6,0.9,1.1,1.4,1.5
	l0.7-1.5c0.3,0.2,0.6,0.4,0.9,0.5l-0.9,1.3c0.6,0.3,1.3,0.5,2,0.6l-0.1-1.6c0.2,0,0.3,0.1,0.5,0.1c0.2,0,0.3,0,0.5,0l-0.1,1.6
	c0.7,0,1.4-0.2,2-0.5l-0.9-1.4c0.3-0.1,0.6-0.3,0.9-0.6l0.7,1.5c0.6-0.4,1.1-0.9,1.4-1.5l-1.5-0.7c0.2-0.3,0.4-0.6,0.5-0.9l1.3,0.9
	c0.3-0.6,0.5-1.3,0.5-2L46.6,45c0-0.2,0.1-0.4,0.1-0.5c0-0.2,0-0.3,0-0.5l1.6,0.1c0-0.7-0.2-1.4-0.5-2.1l-1.3,0.9
	c-0.1-0.3-0.3-0.6-0.5-0.9l1.5-0.7c-0.4-0.6-0.9-1.1-1.5-1.5l-0.7,1.5c-0.3-0.2-0.6-0.4-0.9-0.6l0.9-1.4c-0.6-0.3-1.3-0.5-2-0.5
	l0.1,1.6c-0.2,0-0.3-0.1-0.5-0.1s-0.4,0-0.5,0.1l0.1-1.6c-0.5,0-1.1,0.2-1.6,0.4l1.4,2.9c0.2-0.1,0.4-0.1,0.6-0.1
	c1.3,0,2.4,1.1,2.4,2.4c0,1.3-1.1,2.4-2.4,2.4c-1.3,0-2.4-1.1-2.4-2.4c0-0.7,0.3-1.3,0.8-1.8L39.3,40c-0.4,0.4-0.8,0.7-1.1,1.2
	l1.5,0.7c-0.2,0.3-0.4,0.6-0.5,0.9L37.8,42c-0.3,0.6-0.5,1.3-0.6,2.1l1.6-0.1C38.8,44.1,38.8,44.3,38.8,44.5z M17.4,45.2
	c0,0.3,0,0.6,0,0.9l15.5,2.2c0,0,0.1,0,0.1,0c0.7,0,1-0.6,1-1.1c0,0,0.1-5.5,0.8-6.9c0.4-0.7,2.3-2,2.4-2.1c0,0,5.1-3.5,6.8-4.7
	c0.6-0.4-0.6-2.1-1.3-3.1c-1.4-2.1-3.6-3.6-6-4.2c0.3,0.2,0.5,0.5,0.6,0.8c1,0.6,1.4,1.4,1.5,2.1c0.2,0.2,0.5,0.5,0.7,0.8
	c0.3,0.4,1.4,2.1,0,2.1c-0.3,0-0.8,0-1.6,0.1c-0.3,0.3-0.6,0.6-0.9,0.7C36.7,33,36.3,33,35.9,33c-0.4,0-0.9-0.1-1.4-0.3l-0.3-0.1
	c-2.7,0.5-5.9,1.2-8.5,2.2c-0.3,0.1-0.5,0.2-0.7,0.3l1.3,5.4l0.6-0.2c0.4-0.1,0.8-0.1,1.2,0c-0.1-0.1,0-0.2,0.2-0.4l5.4-4.2
	c0.4-0.3,0.7-0.2,0.7,0.2c0,0.4-0.3,0.9-0.7,1.2l-3.5,2.7c-0.4,0.3-1.1,0.5-1.5,0.5h-0.1c0.9,0.3,1.6,1.1,1.9,2.1l-6.9,1.8
	c-0.8,0.2-1.6-0.3-1.8-1.1L21.6,42c-1.8-0.2-1.5-2-3-2c-0.6,0-1.1,0.1-1.5,0.2C17.4,41.5,17.6,43.6,17.4,45.2z M17.9,37.3l0.6-0.3
	l-3.1-1.5c-0.8-0.1-1.7-0.3-2.5-0.5l1.3,0.8c0.2-0.2,0.3-0.3,0.3-0.3L17.9,37.3z M11,39.8l-0.4,0.9l0.9-0.4
	C11.4,40.1,11.2,39.9,11,39.8z M4,44.5C4,44.6,4,44.8,4,45l-1.6-0.1c0.1,0.7,0.2,1.4,0.5,2L4.3,46c0.1,0.3,0.3,0.6,0.5,0.9l-1.5,0.7
	c0.4,0.6,0.9,1.1,1.4,1.5l0.7-1.5c0.3,0.2,0.6,0.4,0.9,0.5l-0.9,1.3c0.6,0.3,1.3,0.5,2,0.6l-0.1-1.6c0.2,0,0.3,0.1,0.5,0.1
	c0.2,0,0.3,0,0.5,0l-0.1,1.6c0.7,0,1.4-0.2,2-0.5l-0.9-1.4c0.3-0.1,0.6-0.3,0.9-0.6l0.7,1.5c0.6-0.4,1.1-0.9,1.4-1.5L11,46.9
	c0.2-0.3,0.4-0.6,0.5-0.9l1.3,0.9c0.3-0.6,0.5-1.3,0.5-2l-0.9,0.1l-3.1,1.3c-0.4,0.4-1,0.6-1.6,0.6c-1.3,0-2.4-1.1-2.4-2.4
	c0-1.2,0.9-2.2,2-2.4L9.9,41c-0.2-0.1-0.3-0.2-0.5-0.3l0.9-1.4c-0.6-0.3-1.3-0.5-2-0.5l0.1,1.6c-0.2,0-0.3-0.1-0.5-0.1
	c-0.2,0-0.4,0-0.5,0.1l0.1-1.6c-0.7,0.1-1.3,0.2-2,0.5l0.9,1.4c-0.3,0.1-0.6,0.3-0.9,0.5l-0.7-1.5c-0.6,0.4-1.1,0.9-1.5,1.5L4.8,42
	c-0.2,0.3-0.4,0.6-0.5,0.9L2.9,42c-0.3,0.6-0.5,1.3-0.6,2.1L4,43.9C4,44.1,4,44.3,4,44.5z"/>
</svg>
