<?xml version="1.0" encoding="utf-8"?>
<!-- Generator: Adobe Illustrator 23.0.0, SVG Export Plug-In . SVG Version: 6.00 Build 0)  -->
<svg version="1.1" id="Layer_1" xmlns="http://www.w3.org/2000/svg" xmlns:xlink="http://www.w3.org/1999/xlink" x="0px" y="0px"
	 viewBox="0 0 27.4 27.5" style="enable-background:new 0 0 27.4 27.5;" xml:space="preserve">
<style type="text/css">
	.st0{fill:#8B0000;}
</style>
<path class="st0" d="M22,17.1h1.2c0.8,0.1-0.8,0.9-0.8,0.9s-0.8-0.6-0.8-0.7C21.6,17.1,22,17.1,22,17.1z"/>
<path class="st0" d="M16.1,22.6c0.2,0.1,0.4,0.4,0.5,0.6l0.1,0.4c0,0.2,0,0.5-0.1,0.6c-0.1,0.1-0.2,0-0.3-0.2l-0.4-1.2
	C15.8,22.5,15.9,22.4,16.1,22.6z"/>
<path class="st0" d="M10.6,22.1c0.2,0.1,0.4,0.4,0.5,0.6l0.1,0.4c0,0.2,0,0.5-0.1,0.6c-0.1,0.1-0.2,0-0.3-0.2l-0.4-1.2
	C10.2,22,10.3,22,10.6,22.1z"/>
<path class="st0" d="M4.3,19.1c0.6,0,1.2,0.1,1.8,0.4c0.6,0.3,1.1,0.6,1.5,1.1l0.3-0.1c-0.1-0.1-0.2-0.2-0.3-0.3
	c-0.2-0.1-0.3-0.3-0.3-0.5L1.6,17c0-0.4,0.1-0.7,0.3-1C1,14.9,1,13.7,1,13.7V13h0.7c1,0,1.8,0,2.8,0.3C5.2,13.5,5.7,13.7,6,14
	c-0.1-0.5,0-1,0.4-1.6c0,0,2.6-2.7,5.6-3.6c-0.9-0.7-1.2-1.5-1.2-3.2c0-3.1,2.6-5.6,5.7-5.6c3.1,0,5.7,2.5,5.7,5.6
	c0,0.2,0,0.4,0,0.6l0,0c0.5,0.2-0.5,3-1.1,3c-0.8,2-2.1,2.4-3,2.4c-0.5,0-1-0.1-1.5-0.4l-0.2,1.9l0.9,0.5l0,0l0.6-0.6l0.2-0.2h0.3
	c2.1,0,4,1,5.2,2.7l0.1,0.1c0.6,0.8,0.9,1.3,0.8,1.9c0,0.2-0.2,0.4-0.4,0.6c-0.2,0.1-0.4,0.3-0.7,0.5c1,0.1,1.9,0.4,2.6,1l-0.6,0.1
	c1.2,0.8,1.9,2.1,1.9,3.5c0,2.3-1.9,4.2-4.3,4.2c-1.9,0-3.4-1.2-4-2.8l0,0c0,0.2,0,0.3-0.1,0.5c-0.1,0.2-0.2,0.3-0.3,0.4
	c-0.1,0.1-0.3,0.2-0.4,0.3C18.2,26,18,26,17.8,26c0,0-0.1,0-0.1,0l0,0l0,0l-8.4-1.1l-0.7-0.1l0.1-0.6c0-0.1,0-0.1,0-0.2
	c0-0.1,0-0.2,0-0.3c0-0.3,0-0.6,0-0.9l-0.2,0.1c0,0.2,0,0.3,0,0.5c0,2.3-1.9,4.2-4.3,4.2c-2.4,0-4.3-1.9-4.3-4.2
	C0,21,1.9,19.1,4.3,19.1z M7.8,16.9c-2.1-1-0.5-2.1-3.5-2.9c-0.9-0.3-1.6-0.3-2.6-0.3c0,0,0,1.7,1.5,2.5c3,1.6,5.4,1.8,5.4,1.8
	S8.6,17.3,7.8,16.9z M10.9,19.4c-0.3,0.2-0.5,0.5-0.5,0.9c0.6,0.1,0.8,0.5,1,0.7c0,0,0,0,0,0L10.9,19.4z M16.7,10.4
	c0.5,0.3,0.9,0.4,1.4,0.4c1.1,0,1.8-0.9,2.2-1.8c-1.7-0.7-3.8-1.9-4.6-2.7c-0.1,0-0.2,0-0.3,0c-0.5,0-0.9-0.4-0.9-0.9
	c0-0.5,0.4-0.9,0.9-0.9c0.4,0,0.8,0.3,0.9,0.7c1.2-0.1,3.3,0.3,5,0.8c0-0.1,0-0.2,0-0.3c0-2.6-2.1-4.7-4.8-4.7
	c-2.6,0-4.8,2.1-4.8,4.7c0,2.1,0.4,2.3,3.2,3.8C15.5,9.8,16.1,10.1,16.7,10.4z M17.2,16.1c0-0.1-0.1-0.2-0.1-0.3l-2.8-1.3
	c-0.1-0.1-0.3-0.2-0.3-0.4c-0.1-0.2-0.1-0.3,0-0.5h0l0.1-0.8l-1.9,1.7c0.1,0,0.1,0,0.2,0c0.1,0,0.2,0,0.3,0c0.5,0.1,1.1,0.4,1.8,0.6
	c0.4,0.1,0.7,0.3,0.9,0.4c0.5,0.2,0.9,0.6,0.9,1.1v0.1c0.4-0.1,0.8-0.2,1.3-0.3C17.4,16.5,17.3,16.3,17.2,16.1z M12.8,15.4l0.5,1.9
	l0.8,0.2c0.5-0.2,1-0.3,1.5-0.4v-0.3c0-0.2-0.2-0.4-0.4-0.5C14.5,16.1,13.5,15.6,12.8,15.4z M19.3,14.2L19,14c-0.1,0-0.1,0-0.2,0
	c-0.2,0-0.4,0.1-0.4,0.3L18.1,15c-0.4,1-0.4,1,0.9,1.6c0.2,0.1,0.3,0.1,0.5,0.1c0.5,0,0.8-0.5,0.8-0.6c0.4-0.8-0.2-1.2-0.6-1.4
	C19.6,14.4,19.5,14.3,19.3,14.2z M21,23.3c0,0.1,0,0.2,0,0.3l-0.9-0.1c0,0.4,0.1,0.7,0.3,1.1l0.7-0.5c0.1,0.2,0.2,0.3,0.3,0.5
	L20.7,25c0.2,0.3,0.5,0.6,0.8,0.8l0.4-0.8c0.1,0.1,0.3,0.2,0.5,0.3L21.8,26c0.3,0.2,0.7,0.3,1.1,0.3l-0.1-0.9c0.1,0,0.2,0,0.3,0
	c0.1,0,0.2,0,0.3,0l-0.1,0.9c0.4,0,0.8-0.1,1.1-0.3l-0.5-0.7c0.2-0.1,0.3-0.2,0.5-0.3l0.4,0.8c0.3-0.2,0.6-0.5,0.8-0.8l-0.8-0.4
	c0.1-0.1,0.2-0.3,0.3-0.5l0.7,0.5c0.2-0.3,0.3-0.7,0.3-1.1l-0.9,0.1c0-0.1,0-0.2,0-0.3c0-0.1,0-0.2,0-0.3l0.9,0.1
	c0-0.4-0.1-0.7-0.3-1.1l-0.7,0.5c-0.1-0.2-0.2-0.3-0.3-0.5l0.8-0.4c-0.2-0.3-0.5-0.6-0.8-0.8l-0.4,0.8c-0.2-0.1-0.3-0.2-0.5-0.3
	l0.5-0.7c-0.3-0.2-0.7-0.3-1.1-0.3l0.1,0.9c-0.1,0-0.2,0-0.3,0c-0.1,0-0.2,0-0.3,0l0.1-0.9c-0.3,0-0.6,0.1-0.8,0.2l0.8,1.5
	c0.1,0,0.2,0,0.3,0c0.7,0,1.3,0.6,1.3,1.3c0,0.7-0.6,1.3-1.3,1.3c-0.7,0-1.3-0.6-1.3-1.3c0-0.4,0.2-0.7,0.4-0.9l-1-1.4
	c-0.2,0.2-0.4,0.4-0.6,0.6l0.8,0.4c-0.1,0.1-0.2,0.3-0.3,0.5L20.4,22c-0.2,0.3-0.3,0.7-0.3,1.1L21,23C21,23.1,21,23.2,21,23.3z
	 M9.4,23.7c0,0.2,0,0.3,0,0.5l8.4,1.2c0,0,0,0,0.1,0c0.4,0,0.6-0.3,0.6-0.6c0,0,0-2.9,0.4-3.6c0.2-0.4,1.3-1.1,1.3-1.1
	c0,0,2.8-1.8,3.7-2.4c0.3-0.2-0.3-1.1-0.7-1.6c-0.8-1.1-1.9-1.9-3.2-2.2c0.1,0.1,0.3,0.3,0.3,0.4c0.5,0.3,0.7,0.7,0.8,1.1
	c0.1,0.1,0.3,0.3,0.4,0.4c0.2,0.2,0.8,1.1,0,1.1c-0.2,0-0.5,0-0.9,0.1c-0.1,0.2-0.3,0.3-0.5,0.4c-0.2,0.1-0.4,0.1-0.6,0.1
	c-0.2,0-0.5-0.1-0.8-0.2l-0.2-0.1c-1.5,0.2-3.2,0.6-4.6,1.1c-0.1,0.1-0.3,0.1-0.4,0.1l0.7,2.8l0.3-0.1c0.2-0.1,0.4-0.1,0.7,0
	c0,0,0-0.1,0.1-0.2l2.9-2.2c0.2-0.1,0.4-0.1,0.4,0.1c0,0.2-0.2,0.5-0.4,0.6l-1.9,1.4c-0.2,0.2-0.6,0.3-0.8,0.3h-0.1
	c0.5,0.2,0.9,0.6,1,1.1l-3.7,0.9c-0.4,0.1-0.9-0.1-1-0.6L11.7,22c-1-0.1-0.8-1-1.6-1c-0.3,0-0.6,0-0.8,0.1
	C9.4,21.7,9.5,22.9,9.4,23.7z M9.7,19.6l0.3-0.1l-1.7-0.8c-0.5-0.1-0.9-0.1-1.4-0.2l0.7,0.4c0.1-0.1,0.2-0.2,0.2-0.2L9.7,19.6z
	 M6,20.9l-0.2,0.5l0.5-0.2C6.2,21,6.1,20.9,6,20.9z M2.1,23.3c0,0.1,0,0.2,0,0.3l-0.9-0.1c0,0.4,0.1,0.7,0.3,1.1l0.7-0.5
	c0.1,0.2,0.2,0.3,0.3,0.5L1.8,25c0.2,0.3,0.5,0.6,0.8,0.8L3,25c0.1,0.1,0.3,0.2,0.5,0.3L3,26c0.3,0.2,0.7,0.3,1.1,0.3L4,25.4
	c0.1,0,0.2,0,0.3,0c0.1,0,0.2,0,0.3,0l-0.1,0.9c0.4,0,0.8-0.1,1.1-0.3l-0.5-0.7c0.2-0.1,0.3-0.2,0.5-0.3L6,25.8
	c0.3-0.2,0.6-0.5,0.8-0.8L6,24.6c0.1-0.1,0.2-0.3,0.3-0.5L7,24.6c0.2-0.3,0.3-0.7,0.3-1.1l-0.5,0l-1.7,0.7c-0.2,0.2-0.5,0.3-0.8,0.3
	C3.6,24.6,3,24,3,23.3c0-0.6,0.5-1.2,1.1-1.3l1.3-0.6c-0.1-0.1-0.2-0.1-0.3-0.1l0.5-0.7c-0.3-0.2-0.7-0.3-1.1-0.3l0.1,0.9
	c-0.1,0-0.2,0-0.3,0c-0.1,0-0.2,0-0.3,0l0.1-0.9c-0.4,0-0.7,0.1-1.1,0.3l0.5,0.7c-0.2,0.1-0.3,0.2-0.5,0.3l-0.4-0.8
	c-0.3,0.2-0.6,0.5-0.8,0.8L2.6,22c-0.1,0.1-0.2,0.3-0.3,0.5L1.6,22c-0.2,0.3-0.3,0.7-0.3,1.1L2.2,23C2.2,23.1,2.1,23.2,2.1,23.3z"/>
</svg>
