<svg width="50" height="47" viewBox="0 0 50 47" fill="none" xmlns="http://www.w3.org/2000/svg">
<path d="M50 32.975C50 34.7 47.2 35.85 43.9333 36.425C41.8333 31.5375 35.6333 27.8 30.7333 25.2125C31.2 24.35 32.0333 23.3625 32.5 22.5H35.5C42.7333 22.2125 50 28.0875 50 32.975ZM17.5 22.5L14 22.625C6.76667 22.625 0 28.0875 0 32.975C0 34.7 2.8 35.85 6.06667 36.425C8.16667 31.5375 14.3667 27.8 19.2667 25.2125L17.5 22.5ZM25 23.5C30.1333 23.5 34.3333 18.325 34.3333 12C34.3333 5.675 30.1333 0.500004 25 0.500004C19.8667 0.500004 15.6667 5.675 15.6667 12C15.6667 18.325 19.8667 23.5 25 23.5ZM25 26.375C15.4333 26.375 6.33333 33.85 6.33333 40.75C6.33333 46.5 25 46.5 25 46.5C25 46.5 43.6667 46.5 43.6667 40.75C43.6667 33.85 34.5667 26.375 25 26.375ZM33.5 19.75H35C38.9667 19.75 43 16.0125 43 11.125C43 6.2375 39.9667 2.5 36 2.5C34.8333 2.5 33.9 2.7875 32.9667 3.3625C34.8333 6.2375 35.5 8.97501 35.5 13C35.5 15.0125 33.9667 18.025 33.5 19.75ZM15 19.75H16.5C16.0333 18.025 14.5 14.5125 14.5 12.5C14.5 8.47501 15.1667 6.2375 17.0333 3.3625C16.1 2.7875 15.1667 2.5 14 2.5C10.0333 2.5 7 6.2375 7 11.125C7 16.0125 11.0333 19.75 15 19.75Z" fill="url(#paint0_linear_111_712)"/>
<defs>
<linearGradient id="paint0_linear_111_712" x1="0" y1="23.5" x2="50" y2="23.5" gradientUnits="userSpaceOnUse">
<stop stop-color="#FF8008"/>
<stop offset="1" stop-color="#FFC837"/>
</linearGradient>
</defs>
</svg>
