<svg width="24" height="24" viewBox="0 0 24 24" fill="none" xmlns="http://www.w3.org/2000/svg">
<path d="M2.50197 21.1154C2.50269 21.1667 2.51349 21.2172 2.53376 21.2643C2.55402 21.3113 2.58335 21.3539 2.62008 21.3896C2.65681 21.4253 2.70021 21.4534 2.7478 21.4724C2.7954 21.4913 2.84626 21.5007 2.89747 21.4999H21.101C21.1522 21.5007 21.2031 21.4914 21.2508 21.4725C21.2985 21.4536 21.3419 21.4255 21.3787 21.3898C21.4155 21.3541 21.4448 21.3115 21.4651 21.2644C21.4854 21.2173 21.4963 21.1667 21.497 21.1154V20.6564C21.506 20.5179 21.5245 19.8279 21.0695 19.0644C20.7825 18.5829 20.366 18.1674 19.8315 17.8284C19.185 17.4184 18.3625 17.1219 17.3675 16.9434C16.8624 16.8726 16.3613 16.7751 15.8665 16.6514C14.5505 16.3154 14.4355 16.0179 14.4345 16.0149C14.4267 15.9856 14.4156 15.9573 14.4015 15.9304C14.3905 15.8754 14.364 15.6664 14.415 15.1069C14.544 13.6854 15.3065 12.8454 15.919 12.1704C16.112 11.9579 16.2945 11.7564 16.435 11.5594C17.0415 10.7094 17.0975 9.74195 17.1 9.68195C17.1023 9.57563 17.0876 9.46963 17.0565 9.36795C16.9965 9.18295 16.885 9.06794 16.803 8.98294C16.7836 8.96347 16.7648 8.94346 16.7465 8.92295C16.7405 8.91595 16.7245 8.89695 16.739 8.80145C16.788 8.4938 16.8219 8.18392 16.8405 7.87295C16.8685 7.37195 16.89 6.62295 16.7605 5.89345C16.7415 5.7541 16.7128 5.61626 16.6745 5.48095C16.5385 4.97861 16.3185 4.55028 16.0145 4.19595C15.962 4.13845 14.688 2.79595 10.9895 2.52095C10.478 2.48295 9.97247 2.50345 9.47447 2.52895C9.3272 2.53225 9.18063 2.55034 9.03697 2.58295C8.65497 2.68145 8.55297 2.92345 8.52647 3.05895C8.48197 3.28395 8.55997 3.45795 8.61147 3.57395C8.61897 3.59045 8.62847 3.61095 8.61197 3.66495C8.52647 3.79795 8.39097 3.91795 8.25347 4.03145C8.21347 4.06495 7.28647 4.86495 7.23547 5.90945C7.09797 6.70395 7.10797 7.94145 7.27047 8.79695C7.28047 8.84445 7.29397 8.91445 7.27147 8.96195C7.09647 9.11845 6.89847 9.29595 6.89897 9.70095C6.90097 9.74195 6.95747 10.7089 7.56397 11.5594C7.70397 11.7564 7.88647 11.9574 8.07897 12.1699L8.07997 12.1704C8.69247 12.8454 9.45497 13.6854 9.58397 15.1064C9.63447 15.6664 9.60797 15.8749 9.59747 15.9304C9.58313 15.9572 9.57189 15.9856 9.56397 16.0149C9.56347 16.0179 9.44897 16.3144 8.13897 16.6499C7.38297 16.8434 6.63897 16.9424 6.61647 16.9449C5.64947 17.1084 4.83197 17.3979 4.18647 17.8054C3.65397 18.1419 3.23647 18.5589 2.94647 19.0439C2.48247 19.8189 2.49497 20.5249 2.50147 20.6539L2.50197 21.1154Z" stroke="#7B7B7B" stroke-width="2" stroke-linejoin="round"/>
<path d="M13.2779 9.09C13.1479 9.25 13.0079 9.4 12.8579 9.54C12.7079 9.68 12.5679 9.825 12.4379 9.975C12.3179 10.125 12.2229 10.285 12.1529 10.455C12.0829 10.625 12.0679 10.82 12.1079 11.04C12.1779 11.18 12.2079 11.29 12.1979 11.37C12.1879 11.44 12.1479 11.5 12.0779 11.55C11.8979 11.65 11.7179 11.605 11.5379 11.415C11.4179 11.285 11.3329 11.13 11.2829 10.95C11.2429 10.76 11.2329 10.575 11.2529 10.395C11.2829 10.205 11.3379 10.02 11.4179 9.84C11.5079 9.66 11.6229 9.5 11.7629 9.36C11.9029 9.22 12.0479 9.075 12.1979 8.925C12.3479 8.765 12.4829 8.6 12.6029 8.43C12.7229 8.26 12.8129 8.09 12.8729 7.92C12.9329 7.74 12.9479 7.555 12.9179 7.365C12.9079 7.295 12.8679 7.235 12.7979 7.185C12.7279 7.125 12.6379 7.08 12.5279 7.05C12.4179 7.01 12.2929 6.99 12.1529 6.99C12.0229 6.98 11.8879 6.995 11.7479 7.035C11.5179 7.105 11.3179 7.23 11.1479 7.41C10.9779 7.58 10.8879 7.765 10.8779 7.965C10.9479 8.125 10.9429 8.235 10.8629 8.295C10.7929 8.345 10.7179 8.37 10.6379 8.37C10.5679 8.37 10.5029 8.35 10.4429 8.31C10.2029 8.07 10.0979 7.81 10.1279 7.53C10.1679 7.25 10.2779 6.995 10.4579 6.765C10.6279 6.535 10.8429 6.355 11.1029 6.225C11.3729 6.085 11.6629 6.005 11.9729 5.985C12.3629 5.955 12.7279 6.025 13.0679 6.195C13.4179 6.355 13.6579 6.63 13.7879 7.02C13.9179 7.46 13.9179 7.85 13.7879 8.19C13.6579 8.53 13.4879 8.83 13.2779 9.09ZM12.7529 13.74C12.7829 13.88 12.7629 14.005 12.6929 14.115C12.6229 14.225 12.5279 14.31 12.4079 14.37C12.2979 14.43 12.1779 14.455 12.0479 14.445C11.9279 14.435 11.8229 14.375 11.7329 14.265C11.6729 14.195 11.6379 14.115 11.6279 14.025C11.6179 13.935 11.6179 13.84 11.6279 13.74C11.6479 13.64 11.6679 13.545 11.6879 13.455C11.7179 13.365 11.7329 13.285 11.7329 13.215C11.7329 13.185 11.7429 13.15 11.7629 13.11C11.7829 13.07 11.8079 13.04 11.8379 13.02C11.8779 12.99 11.9179 12.975 11.9579 12.975C11.9979 12.975 12.0429 13.005 12.0929 13.065C12.2329 13.175 12.3779 13.29 12.5279 13.41C12.6779 13.52 12.7529 13.63 12.7529 13.74Z" fill="#7B7B7B"/>
</svg>
