<svg width="39" height="39" viewBox="0 0 39 39" fill="none" xmlns="http://www.w3.org/2000/svg">
<path d="M19.5 24.375C22.1924 24.375 24.375 22.1924 24.375 19.5C24.375 16.8076 22.1924 14.625 19.5 14.625C16.8076 14.625 14.625 16.8076 14.625 19.5C14.625 22.1924 16.8076 24.375 19.5 24.375Z" fill="#6C2525"/>
<path d="M32.5 6.5H27.3487L25.3337 4.30625C25.0309 3.97376 24.6621 3.7081 24.2508 3.52623C23.8394 3.34436 23.3947 3.25028 22.945 3.25H16.055C15.145 3.25 14.2675 3.64 13.65 4.30625L11.6512 6.5H6.5C4.7125 6.5 3.25 7.9625 3.25 9.75V29.25C3.25 31.0375 4.7125 32.5 6.5 32.5H32.5C34.2875 32.5 35.75 31.0375 35.75 29.25V9.75C35.75 7.9625 34.2875 6.5 32.5 6.5ZM19.5 27.625C15.015 27.625 11.375 23.985 11.375 19.5C11.375 15.015 15.015 11.375 19.5 11.375C23.985 11.375 27.625 15.015 27.625 19.5C27.625 23.985 23.985 27.625 19.5 27.625Z" fill="#6C2525"/>
</svg>
