<svg width="39" height="28" viewBox="0 0 39 28" fill="none" xmlns="http://www.w3.org/2000/svg">
<path d="M3.95455 0C3.03834 0 2.15967 0.368749 1.51181 1.02513C0.86396 1.6815 0.5 2.57174 0.5 3.5V22.75H3.95455C3.95455 24.1424 4.50049 25.4777 5.47227 26.4623C6.44404 27.4469 7.76206 28 9.13636 28C10.5107 28 11.8287 27.4469 12.8005 26.4623C13.7722 25.4777 14.3182 24.1424 14.3182 22.75H24.6818C24.6818 24.1424 25.2278 25.4777 26.1995 26.4623C27.1713 27.4469 28.4893 28 29.8636 28C31.2379 28 32.556 27.4469 33.5277 26.4623C34.4995 25.4777 35.0455 24.1424 35.0455 22.75H38.5V14L33.3182 7H28.1364V0H3.95455ZM16.0455 3.5L22.9545 10.5L16.0455 17.5V12.25H5.68182V8.75H16.0455V3.5ZM28.1364 9.625H32.4545L35.8573 14H28.1364V9.625ZM9.13636 20.125C9.82352 20.125 10.4825 20.4016 10.9684 20.8938C11.4543 21.3861 11.7273 22.0538 11.7273 22.75C11.7273 23.4462 11.4543 24.1139 10.9684 24.6062C10.4825 25.0984 9.82352 25.375 9.13636 25.375C8.44921 25.375 7.7902 25.0984 7.30431 24.6062C6.81842 24.1139 6.54545 23.4462 6.54545 22.75C6.54545 22.0538 6.81842 21.3861 7.30431 20.8938C7.7902 20.4016 8.44921 20.125 9.13636 20.125ZM29.8636 20.125C30.5508 20.125 31.2098 20.4016 31.6957 20.8938C32.1816 21.3861 32.4545 22.0538 32.4545 22.75C32.4545 23.4462 32.1816 24.1139 31.6957 24.6062C31.2098 25.0984 30.5508 25.375 29.8636 25.375C29.1765 25.375 28.5175 25.0984 28.0316 24.6062C27.5457 24.1139 27.2727 23.4462 27.2727 22.75C27.2727 22.0538 27.5457 21.3861 28.0316 20.8938C28.5175 20.4016 29.1765 20.125 29.8636 20.125Z" fill="#9B9B9C"/>
</svg>
