<svg width="16" height="16" viewBox="0 0 16 16" fill="none" xmlns="http://www.w3.org/2000/svg">
<g opacity="0.15">
<path d="M12 5.3335L12.6325 5.54431C13.2925 5.76432 13.6225 5.87432 13.8112 6.13621C14 6.3981 14 6.74596 14 7.44168V11.2195C14 12.0801 14 12.5104 13.7735 12.7868C13.6966 12.8807 13.6032 12.9598 13.498 13.0202C13.1881 13.1982 12.7636 13.1274 11.9148 12.986C11.0771 12.8464 10.6583 12.7765 10.2432 12.8113C10.0976 12.8235 9.95283 12.8452 9.81001 12.8764C9.40306 12.9653 9.01995 13.1569 8.25375 13.54C7.25393 14.0399 6.75403 14.2898 6.22189 14.3669C6.06162 14.3901 5.89986 14.4016 5.73792 14.4013C5.20023 14.4002 4.67457 14.225 3.62325 13.8746L3.36754 13.7893C2.70753 13.5693 2.37752 13.4593 2.18876 13.1974C2 12.9356 2 12.5877 2 11.892V8.6055C2 7.49957 2 6.94661 2.32561 6.64921C2.38258 6.59718 2.44539 6.55191 2.51278 6.51431C2.89788 6.29945 3.42246 6.47432 4.47164 6.82404" stroke="black"/>
<path d="M4 5.1337C4 3.03491 5.79086 1.3335 8 1.3335C10.2091 1.3335 12 3.03491 12 5.1337C12 7.21605 10.7233 9.64596 8.73147 10.5149C8.26713 10.7175 7.73287 10.7175 7.26853 10.5149C5.27666 9.64596 4 7.21605 4 5.1337Z" stroke="black"/>
<circle cx="7.99996" cy="5.33333" r="1.33333" stroke="black"/>
</g>
</svg>
