<svg width="19" height="18" viewBox="0 0 19 18" fill="none" xmlns="http://www.w3.org/2000/svg">
<path d="M18.247 6.55329L12.8157 5.76395L10.3878 0.841798C10.3215 0.707032 10.2124 0.597936 10.0776 0.531623C9.73965 0.36477 9.32893 0.503814 9.15994 0.841798L6.73202 5.76395L1.30075 6.55329C1.15101 6.57469 1.01411 6.64528 0.909288 6.75223C0.782569 6.88248 0.712741 7.0577 0.715148 7.2394C0.717555 7.42111 0.791999 7.59442 0.922123 7.72126L4.85172 11.5525L3.92333 16.9623C3.90156 17.0882 3.91549 17.2176 3.96353 17.3359C4.01157 17.4543 4.09181 17.5568 4.19515 17.6318C4.29848 17.7069 4.42078 17.7515 4.54817 17.7606C4.67556 17.7696 4.80295 17.7429 4.91589 17.6832L9.77387 15.1291L14.6319 17.6832C14.7645 17.7538 14.9185 17.7773 15.0661 17.7517C15.4383 17.6875 15.6886 17.3345 15.6244 16.9623L14.696 11.5525L18.6256 7.72126C18.7326 7.61644 18.8032 7.47954 18.8246 7.3298C18.8823 6.95545 18.6213 6.60891 18.247 6.55329Z" fill="#FFC700"/>
</svg>
