<svg width="20" height="18" viewBox="0 0 20 18" fill="none" xmlns="http://www.w3.org/2000/svg">
<path d="M18.5207 6.55329L13.0894 5.76395L10.6615 0.841798C10.5952 0.707032 10.4861 0.597936 10.3513 0.531623C10.0133 0.36477 9.60261 0.503814 9.43362 0.841798L7.0057 5.76395L1.57443 6.55329C1.42469 6.57469 1.28779 6.64528 1.18297 6.75223C1.05625 6.88248 0.986423 7.0577 0.98883 7.2394C0.991236 7.42111 1.06568 7.59442 1.1958 7.72126L5.1254 11.5525L4.19701 16.9623C4.17524 17.0882 4.18917 17.2176 4.23721 17.3359C4.28526 17.4543 4.36549 17.5568 4.46883 17.6318C4.57217 17.7069 4.69446 17.7515 4.82185 17.7606C4.94925 17.7696 5.07663 17.7429 5.18957 17.6832L10.0476 15.1291L14.9055 17.6832C15.0382 17.7538 15.1922 17.7773 15.3398 17.7517C15.712 17.6875 15.9623 17.3345 15.8981 16.9623L14.9697 11.5525L18.8993 7.72126C19.0063 7.61644 19.0768 7.47954 19.0982 7.3298C19.156 6.95545 18.895 6.60891 18.5207 6.55329ZM13.3162 11.0134L14.0884 15.512L10.0476 13.39L6.00672 15.5141L6.77895 11.0155L3.51035 7.82822L8.02821 7.1715L10.0476 3.07933L12.0669 7.1715L16.5848 7.82822L13.3162 11.0134Z" fill="#FFC700"/>
</svg>
