<svg width="49" height="49" viewBox="0 0 49 49" fill="none" xmlns="http://www.w3.org/2000/svg">
<g clip-path="url(#clip0)">
<path d="M39.6698 7.29167H35.5833V15.4551H39.6698V7.29167ZM11.0833 7.29167H6.99673V15.4551H11.0833V7.29167ZM43.7467 11.3782H41.7083V17.5032H33.5448V11.3782H13.1217V17.5032H4.95825V11.3782H2.91978C0.661182 11.3782 -1.16675 13.2061 -1.16675 15.4551V39.9551C-1.16675 42.2137 0.661182 44.0417 2.91978 44.0417H43.7563C46.0053 44.0417 47.8428 42.2137 47.8428 39.9551V15.4551C47.8333 13.2061 46.0053 11.3782 43.7467 11.3782ZM17.2083 37.9167H2.91978V23.6282H17.2083V37.9167ZM31.4967 35.8782H21.2948V31.7917H31.5063V35.8782H31.4967ZM43.7467 29.7532H21.2948V25.6667H43.7563V29.7532H43.7467Z" fill="#A80000"/>
</g>
<defs>
<clipPath id="clip0">
<rect width="49" height="49" fill="white" transform="translate(-0.00012207)"/>
</clipPath>
</defs>
</svg>
