<svg width="44" height="43" viewBox="0 0 44 43" fill="none" xmlns="http://www.w3.org/2000/svg">
<path d="M21.9999 38.5C26.597 38.5 31.0058 36.7089 34.2564 33.5208C37.5071 30.3327 39.3333 26.0087 39.3333 21.5C39.3333 16.9913 37.5071 12.6673 34.2564 9.47918C31.0058 6.29107 26.597 4.5 21.9999 4.5C17.4028 4.5 12.994 6.29107 9.7434 9.47918C6.49277 12.6673 4.66659 16.9913 4.66659 21.5C4.66659 26.0087 6.49277 30.3327 9.7434 33.5208C12.994 36.7089 17.4028 38.5 21.9999 38.5ZM21.9999 0.25C24.8452 0.25 27.6627 0.799647 30.2914 1.86756C32.9201 2.93547 35.3086 4.50074 37.3206 6.47398C39.3325 8.44722 40.9285 10.7898 42.0173 13.368C43.1062 15.9461 43.6666 18.7094 43.6666 21.5C43.6666 27.1358 41.3839 32.5409 37.3206 36.526C33.2573 40.5112 27.7463 42.75 21.9999 42.75C10.0183 42.75 0.333252 33.1875 0.333252 21.5C0.333252 15.8641 2.61598 10.4591 6.67927 6.47398C10.7426 2.48883 16.2536 0.25 21.9999 0.25ZM23.0833 10.875V22.0312L32.8333 27.705L31.2083 30.3187L19.8333 23.625V10.875H23.0833Z" fill="url(#paint0_linear_111_708)"/>
<defs>
<linearGradient id="paint0_linear_111_708" x1="0.333252" y1="21.5" x2="43.6666" y2="21.5" gradientUnits="userSpaceOnUse">
<stop stop-color="#FF8008"/>
<stop offset="1" stop-color="#FFC837"/>
</linearGradient>
</defs>
</svg>
