<svg width="30" height="30" viewBox="0 0 30 30" fill="none" xmlns="http://www.w3.org/2000/svg">
<path d="M14.9845 2.48645C14.7196 2.49059 14.4672 2.59965 14.2826 2.78969C14.0981 2.97974 13.9965 3.23524 14.0001 3.50012V4.00012H8.50008C8.36762 3.99832 8.23612 4.02286 8.11321 4.07231C7.99031 4.12176 7.87846 4.19513 7.78415 4.28817C7.68984 4.3812 7.61496 4.49205 7.56384 4.61427C7.51273 4.73649 7.48641 4.86765 7.48641 5.00012H6.00008C5.86757 4.99825 5.73601 5.02273 5.61304 5.07214C5.49007 5.12156 5.37815 5.19492 5.28378 5.28796C5.18941 5.38101 5.11447 5.49188 5.06333 5.61414C5.01218 5.73639 4.98584 5.8676 4.98584 6.00012C4.98584 6.13265 5.01218 6.26385 5.06333 6.38611C5.11447 6.50837 5.18941 6.61924 5.28378 6.71228C5.37815 6.80533 5.49007 6.87869 5.61304 6.9281C5.73601 6.97751 5.86757 7.002 6.00008 7.00012H24.0001C24.1326 7.002 24.2642 6.97751 24.3871 6.9281C24.5101 6.87869 24.622 6.80533 24.7164 6.71228C24.8108 6.61924 24.8857 6.50837 24.9368 6.38611C24.988 6.26385 25.0143 6.13265 25.0143 6.00012C25.0143 5.8676 24.988 5.73639 24.9368 5.61414C24.8857 5.49188 24.8108 5.38101 24.7164 5.28796C24.622 5.19492 24.5101 5.12156 24.3871 5.07214C24.2642 5.02273 24.1326 4.99825 24.0001 5.00012H22.5138C22.5138 4.86765 22.4874 4.73649 22.4363 4.61427C22.3852 4.49205 22.3103 4.3812 22.216 4.28817C22.1217 4.19513 22.0099 4.12176 21.8869 4.07231C21.764 4.02286 21.6325 3.99832 21.5001 4.00012H16.0001V3.50012C16.0019 3.36633 15.9769 3.23354 15.9265 3.1096C15.876 2.98566 15.8013 2.87309 15.7066 2.77857C15.6119 2.68405 15.4992 2.60949 15.3751 2.55932C15.2511 2.50914 15.1182 2.48436 14.9845 2.48645ZM6.00008 9.00012L7.79305 24.2345C7.91105 25.2415 8.76343 26.0001 9.77743 26.0001H20.2227C21.2367 26.0001 22.0881 25.2415 22.2071 24.2345L24.0001 9.00012H6.00008Z" fill="white"/>
</svg>
