<svg width="59" height="48" viewBox="0 0 59 48" fill="none" xmlns="http://www.w3.org/2000/svg">
<path d="M36.3086 0H-0.000141144V25.4161H36.3086V0Z" fill="#848484"/>
<path d="M3.63083 39.9396C3.60896 40.9067 3.78051 41.8684 4.13541 42.7682C4.49032 43.668 5.02142 44.4879 5.69753 45.1796C6.37365 45.8714 7.18115 46.4211 8.07263 46.7965C8.96412 47.1718 9.92161 47.3653 10.8889 47.3656C11.8562 47.3658 12.8138 47.1728 13.7055 46.7979C14.5971 46.4229 15.4049 45.8736 16.0814 45.1822C16.7578 44.4908 17.2893 43.6712 17.6447 42.7716C18 41.8719 18.1721 40.9103 18.1507 39.9433C18.1087 38.0459 17.3257 36.2404 15.9691 34.9132C14.6126 33.586 12.7904 32.8425 10.8925 32.8421C8.99471 32.8416 7.17212 33.5841 5.81491 34.9106C4.4577 36.2372 3.67373 38.0423 3.63083 39.9396Z" fill="#848484"/>
<path d="M10.8926 29.047C6.17244 29.047 2.17848 31.9517 0.726131 36.3087H-4.29153e-05V29.047H10.8926Z" fill="#848484"/>
<path d="M39.9395 7.26175H54.463L58.0939 21.7852V36.3087H53.7368C52.2845 31.9517 48.2905 29.047 43.5704 29.047C38.8502 29.047 34.8563 31.9517 33.4039 36.3087H21.059C19.6066 31.9517 15.6126 29.047 10.8925 29.047H39.9395V7.26175ZM43.5704 21.7852H54.463L51.5583 10.8926H43.5704V21.7852Z" fill="#848484"/>
<path d="M36.3087 39.9396C36.2868 40.9067 36.4584 41.8684 36.8133 42.7682C37.1682 43.668 37.6993 44.4879 38.3754 45.1796C39.0515 45.8714 39.859 46.4211 40.7505 46.7965C41.642 47.1718 42.5995 47.3653 43.5668 47.3656C44.534 47.3658 45.4916 47.1728 46.3833 46.7979C47.275 46.4229 48.0828 45.8736 48.7592 45.1822C49.4357 44.4908 49.9672 43.6712 50.3225 42.7716C50.6779 41.8719 50.8499 40.9103 50.8285 39.9433C50.7866 38.0459 50.0035 36.2404 48.647 34.9132C47.2904 33.586 45.4682 32.8425 43.5704 32.8421C41.6726 32.8416 39.85 33.5841 38.4928 34.9106C37.1356 36.2372 36.3516 38.0423 36.3087 39.9396Z" fill="#848484"/>
</svg>
